<svg version="1.1" viewBox="0.0 0.0 566.9291338582677 188.9763779527559" fill="none" stroke="none" stroke-linecap="square" stroke-miterlimit="10" xmlns:xlink="http://www.w3.org/1999/xlink" xmlns="http://www.w3.org/2000/svg"><clipPath id="g1e4521028ff_0_247.0"><path d="m0 0l566.92914 0l0 188.97638l-566.92914 0l0 -188.97638z" clip-rule="nonzero"/></clipPath><g clip-path="url(#g1e4521028ff_0_247.0)"><path fill="#000000" fill-opacity="0.0" d="m0 0l566.92914 0l0 188.97638l-566.92914 0z" fill-rule="evenodd"/><path fill="#42cff4" d="m6.385 181.37523l35.141563 -81.53684l111.70314 0l35.14157 81.53684z" fill-rule="evenodd"/><path stroke="#595959" stroke-width="12.0" stroke-linejoin="round" stroke-linecap="butt" d="m6.385 181.37523l35.141563 -81.53684l111.70314 0l35.14157 81.53684z" fill-rule="evenodd"/><path fill="#42cff4" d="m67.188225 62.946896l0 0c-8.546795 -14.636044 -21.869617 -22.753544 -29.757355 -18.130943l0 0c-3.7878227 2.2198524 -5.7900734 7.140835 -5.5662804 13.680393c0.22379303 6.539551 2.6553001 14.161995 6.7596207 21.190475l0 0c8.546795 14.63604 21.869617 22.753548 29.75735 18.130943l0 0c7.887741 -4.6226044 7.353462 -20.234818 -1.1933365 -34.87087z" fill-rule="evenodd"/><path stroke="#595959" stroke-width="12.0" stroke-linejoin="round" stroke-linecap="butt" d="m67.188225 62.946896l0 0c-8.546795 -14.636044 -21.869617 -22.753544 -29.757355 -18.130943l0 0c-3.7878227 2.2198524 -5.7900734 7.140835 -5.5662804 13.680393c0.22379303 6.539551 2.6553001 14.161995 6.7596207 21.190475l0 0c8.546795 14.63604 21.869617 22.753548 29.75735 18.130943l0 0c7.887741 -4.6226044 7.353462 -20.234818 -1.1933365 -34.87087z" fill-rule="evenodd"/><path fill="#42cff4" d="m124.72516 62.946888l0 0c8.546799 -14.636047 21.869629 -22.753548 29.757355 -18.130943l0 0c3.7878265 2.2198486 5.790085 7.140835 5.566284 13.680389c-0.22380066 6.5395546 -2.655304 14.161999 -6.759613 21.190472l0 0c-8.546799 14.636047 -21.869629 22.753548 -29.757362 18.13095l0 0c-7.8877335 -4.6226044 -7.353462 -20.234825 1.1933365 -34.87087z" fill-rule="evenodd"/><path stroke="#595959" stroke-width="12.0" stroke-linejoin="round" stroke-linecap="butt" d="m124.72516 62.946888l0 0c8.546799 -14.636047 21.869629 -22.753548 29.757355 -18.130943l0 0c3.7878265 2.2198486 5.790085 7.140835 5.566284 13.680389c-0.22380066 6.5395546 -2.655304 14.161999 -6.759613 21.190472l0 0c-8.546799 14.636047 -21.869629 22.753548 -29.757362 18.13095l0 0c-7.8877335 -4.6226044 -7.353462 -20.234825 1.1933365 -34.87087z" fill-rule="evenodd"/><path fill="#42cff4" d="m40.326168 112.42509l0 0c0 -31.571556 25.543034 -57.165356 57.051968 -57.165356l0 0c15.131126 0 29.642517 6.0227585 40.341835 16.743343c10.699326 10.720581 16.710129 25.260818 16.710129 40.422012l0 0c0 31.571556 -25.54303 57.16535 -57.051964 57.16535l0 0c-31.508934 0 -57.051968 -25.593796 -57.051968 -57.16535z" fill-rule="evenodd"/><path stroke="#595959" stroke-width="12.0" stroke-linejoin="round" stroke-linecap="butt" d="m40.326168 112.42509l0 0c0 -31.571556 25.543034 -57.165356 57.051968 -57.165356l0 0c15.131126 0 29.642517 6.0227585 40.341835 16.743343c10.699326 10.720581 16.710129 25.260818 16.710129 40.422012l0 0c0 31.571556 -25.54303 57.16535 -57.051964 57.16535l0 0c-31.508934 0 -57.051968 -25.593796 -57.051968 -57.16535z" fill-rule="evenodd"/><path fill="#42cff4" d="m6.9581413 180.76234l34.84571 -80.85039l111.15898 0l34.845703 80.85039z" fill-rule="evenodd"/><path stroke="#c9daf8" stroke-width="4.0" stroke-linejoin="round" stroke-linecap="butt" d="m6.9581413 180.76234l34.84571 -80.85039l111.15898 0l34.845703 80.85039z" fill-rule="evenodd"/><path fill="#42cff4" d="m67.38658 63.32693l0 0c-8.49736 -14.515957 -21.73845 -22.56778 -29.574806 -17.984253l0 0c-3.7631493 2.201088 -5.751171 7.081169 -5.526718 13.566677c0.22445297 6.485512 2.642994 14.045197 6.723568 21.015999l0 0c8.49736 14.515961 21.73845 22.56778 29.574802 17.984253l0 0c7.836357 -4.5835266 7.3005066 -20.06672 -1.196846 -34.582676z" fill-rule="evenodd"/><path stroke="#c9daf8" stroke-width="4.0" stroke-linejoin="round" stroke-linecap="butt" d="m67.38658 63.32693l0 0c-8.49736 -14.515957 -21.73845 -22.56778 -29.574806 -17.984253l0 0c-3.7631493 2.201088 -5.751171 7.081169 -5.526718 13.566677c0.22445297 6.485512 2.642994 14.045197 6.723568 21.015999l0 0c8.49736 14.515961 21.73845 22.56778 29.574802 17.984253l0 0c7.836357 -4.5835266 7.3005066 -20.06672 -1.196846 -34.582676z" fill-rule="evenodd"/><path fill="#42cff4" d="m124.56141 63.326923l0 0c8.488655 -14.515957 21.722694 -22.567783 29.559044 -17.984253l0 0c3.763153 2.201088 5.752838 7.081169 5.5313416 13.566677c-0.22149658 6.485512 -2.636032 14.045189 -6.712433 21.015999l0 0c-8.488663 14.515961 -21.722702 22.56778 -29.55906 17.984253l0 0c-7.836357 -4.5835266 -7.307556 -20.06672 1.1811066 -34.582676z" fill-rule="evenodd"/><path stroke="#c9daf8" stroke-width="4.0" stroke-linejoin="round" stroke-linecap="butt" d="m124.56141 63.326923l0 0c8.488655 -14.515957 21.722694 -22.567783 29.559044 -17.984253l0 0c3.763153 2.201088 5.752838 7.081169 5.5313416 13.566677c-0.22149658 6.485512 -2.636032 14.045189 -6.712433 21.015999l0 0c-8.488663 14.515961 -21.722702 22.56778 -29.55906 17.984253l0 0c-7.836357 -4.5835266 -7.307556 -20.06672 1.1811066 -34.582676z" fill-rule="evenodd"/><path fill="#42cff4" d="m40.323544 112.39621l0 0c0 -31.571548 25.544445 -57.16535 57.05512 -57.16535l0 0c15.131958 0 29.64415 6.0227623 40.344055 16.743347c10.699921 10.720581 16.71106 25.26081 16.71106 40.422005l0 0c0 31.571564 -25.544449 57.16536 -57.055115 57.16536l0 0c-31.510674 0 -57.05512 -25.593796 -57.05512 -57.16536z" fill-rule="evenodd"/><path stroke="#595959" stroke-width="12.0" stroke-linejoin="round" stroke-linecap="butt" d="m40.323544 112.39621l0 0c0 -31.571548 25.544445 -57.16535 57.05512 -57.16535l0 0c15.131958 0 29.64415 6.0227623 40.344055 16.743347c10.699921 10.720581 16.71106 25.26081 16.71106 40.422005l0 0c0 31.571564 -25.544449 57.16536 -57.055115 57.16536l0 0c-31.510674 0 -57.05512 -25.593796 -57.05512 -57.16536z" fill-rule="evenodd"/><path fill="#42cff4" d="m40.6857 112.39463l0 0c0 -31.31063 25.382286 -56.692913 56.692917 -56.692913l0 0c15.035896 0 29.455956 5.972988 40.087936 16.604969c10.631989 10.631989 16.60498 25.052048 16.60498 40.087944l0 0c0 31.31063 -25.382294 56.69291 -56.692917 56.69291l0 0c-31.31063 0 -56.692917 -25.382278 -56.692917 -56.69291z" fill-rule="evenodd"/><path stroke="#c9daf8" stroke-width="4.0" stroke-linejoin="round" stroke-linecap="butt" d="m40.6857 112.39463l0 0c0 -31.31063 25.382286 -56.692913 56.692917 -56.692913l0 0c15.035896 0 29.455956 5.972988 40.087936 16.604969c10.631989 10.631989 16.60498 25.052048 16.60498 40.087944l0 0c0 31.31063 -25.382294 56.69291 -56.692917 56.69291l0 0c-31.31063 0 -56.692917 -25.382278 -56.692917 -56.69291z" fill-rule="evenodd"/><path fill="#595959" d="m49.65927 106.88242l0 0c10.321835 -8.615303 28.391418 -13.829628 47.797905 -13.792999c19.406494 0.036628723 37.403984 5.319023 47.607216 13.973068l-47.80957 15.49131z" fill-rule="evenodd"/><path fill="#595959" d="m144.98978 106.94316c2.6441193 18.644218 -5.8140106 37.12053 -21.654411 47.30287c-15.840401 10.182327 -36.160675 10.205002 -52.023758 0.058044434c-15.863087 -10.146957 -24.362427 -28.604347 -21.759926 -47.254425l47.72654 6.6599426z" fill-rule="evenodd"/><path fill="#000000" fill-opacity="0.0" d="m158.27559 4.358268l402.26776 0l0 113.10236l-402.26776 0z" fill-rule="evenodd"/><path fill="#42cff4" d="m184.60371 91.69202q-1.40625 0.078125 -2.328125 -1.3125q-0.921875 -1.390625 -0.84375 -2.3125q0.078125 -1.234375 0.6875 -3.546875q0.625 -2.328125 1.390625 -4.71875q0.78125 -2.40625 1.390625 -3.796875q0.3125 -1.25 0.578125 -2.203125q0.28125 -0.96875 0.359375 -1.28125q0.234375 -0.3125 0.734375 -1.625q0.5 -1.3125 0.8125 -2.546875q0.15625 -0.625 0.65625 -2.359375q0.5 -1.75 1.234375 -4.0625q0.734375 -2.328125 1.46875 -4.5625q0.734375 -2.25 1.265625 -3.9375q0.546875 -1.703125 0.703125 -2.25q0.625 -0.921875 0.921875 -1.765625q0.3125 -0.859375 0.390625 -1.171875q0.46875 -0.3125 0.546875 -0.8125q0.078125 -0.5 0.078125 -0.8125q0 -0.390625 0.265625 -0.609375q0.28125 -0.234375 0.28125 -0.546875q0.296875 -0.234375 0.375 -0.078125q0.078125 0.15625 0.46875 -0.234375l0.390625 -2.625l6.875 -0.078125q-0.15625 0.921875 -0.46875 2.28125q-0.296875 1.34375 -1.453125 3.59375q-0.390625 1.546875 -0.90625 2.78125q-0.5 1.234375 -0.421875 1.625q-0.15625 0.15625 -0.65625 1.546875q-0.5 1.390625 -1.15625 3.40625q-0.65625 2.0 -1.3125 4.015625q-0.65625 2.015625 -1.15625 3.53125q-0.5 1.5 -0.65625 1.890625q-0.625 1.234375 -1.40625 3.640625q-0.765625 2.390625 -2.3125 6.484375q-0.625 1.234375 -1.515625 3.71875q-0.875 2.46875 -1.421875 4.46875q-0.84375 3.015625 -1.515625 4.328125q-0.65625 1.328125 -1.203125 1.59375q-0.53125 0.265625 -1.140625 0.34375zm0.6875 -45.46875q-3.171875 0.3125 -4.296875 -0.765625q-1.109375 -1.078125 -0.8125 -2.328125q0.234375 -0.921875 1.125 -1.578125q0.890625 -0.65625 3.296875 -1.125q0.84375 -0.15625 2.1875 -0.375q1.359375 -0.234375 2.59375 -0.46875q2.5625 -0.3125 4.21875 -0.546875q1.671875 -0.234375 3.4375 -0.390625q1.78125 -0.15625 4.484375 -0.3125q2.25 -0.140625 3.828125 -0.25q1.59375 -0.125 1.59375 -0.125q0.234375 0 1.625 0.15625q1.390625 0.15625 3.015625 0.390625q1.625 0.21875 2.390625 0.53125q1.78125 0.390625 2.859375 1.390625q1.09375 1.0 1.390625 2.328125q0.234375 0.921875 0 1.421875q-0.21875 0.5 -0.84375 0.8125q-1.78125 0.546875 -2.90625 0.890625q-1.109375 0.34375 -2.203125 -0.03125q-0.375 -0.390625 -0.890625 -0.703125q-0.5 -0.3125 -1.703125 -0.5q-1.1875 -0.203125 -3.734375 -0.34375q-2.171875 0.21875 -3.796875 0.21875q-1.625 0 -1.625 0.390625l-4.5625 0.234375l-3.78125 0.390625q-0.78125 0.078125 -2.171875 0.203125q-1.390625 0.109375 -2.703125 0.21875q-1.3125 0.109375 -2.015625 0.265625zm25.369446 40.0625q-0.625 -0.625 -0.890625 -1.859375q-0.265625 -1.234375 -0.203125 -2.4375q0.078125 -1.203125 0.390625 -1.8125q0 -0.625 0.1875 -0.96875q0.203125 -0.34375 0.125 -0.65625q-0.078125 -0.3125 0.15625 -1.078125q0.234375 -0.78125 0.46875 -1.46875q0.53125 -1.25 1.21875 -3.21875q0.703125 -1.96875 1.390625 -4.015625q0.703125 -2.046875 1.171875 -3.546875q0.46875 -1.515625 0.546875 -1.828125q0 -0.921875 1.234375 -1.0q0.921875 -0.3125 2.234375 0.765625q1.328125 1.078125 2.09375 2.328125q0.625 0.609375 0.46875 1.625q-0.15625 1.0 -1.015625 2.859375q-0.296875 0.609375 -0.734375 2.046875q-0.421875 1.421875 -0.578125 2.359375q-0.3125 0.609375 -0.734375 1.734375q-0.421875 1.125 -0.734375 2.125q-0.15625 0.390625 -0.3125 1.4375q-0.140625 1.046875 -0.375 2.125q-0.234375 1.078125 -0.625 1.703125q-0.6875 3.171875 -2.4375 3.71875q-1.734375 0.53125 -3.046875 -0.9375zm8.34375 -31.015625q-0.84375 -0.609375 -1.28125 -1.5q-0.421875 -0.890625 -0.46875 -1.578125q-0.03125 -0.703125 0.125 -0.859375q0.78125 -0.859375 1.359375 -2.25q0.578125 -1.390625 1.28125 -2.546875q0.140625 -0.234375 0.40625 -0.65625q0.28125 -0.421875 0.59375 -0.5q0.921875 -0.625 2.578125 0.078125q1.671875 0.6875 2.453125 1.9375q0.6875 1.46875 0.40625 3.015625q-0.265625 1.546875 -1.65625 3.234375q-1.15625 1.546875 -2.9375 1.984375q-1.765625 0.421875 -2.859375 -0.359375zm42.60945 30.46875q-0.546875 -0.15625 -1.703125 -1.0q-1.15625 -0.859375 -2.046875 -2.546875q-0.890625 -1.703125 -0.8125 -4.421875q0.078125 -2.3125 0.34375 -3.28125q0.28125 -0.96875 -0.265625 -1.046875q-0.390625 -0.078125 -1.546875 0.703125q-1.15625 0.765625 -3.015625 2.46875q-1.859375 1.703125 -4.484375 4.484375q-0.921875 0.78125 -2.046875 1.90625q-1.125 1.109375 -2.25 1.65625q-1.109375 0.546875 -1.96875 -0.234375l-0.765625 -0.6875q-0.546875 -0.46875 -0.9375 -1.234375q-0.375 -0.78125 -0.234375 -1.328125l2.171875 -6.03125q0.921875 -2.0 1.265625 -2.921875q0.359375 -0.9375 0.3125 -1.171875q-0.03125 -0.234375 -0.421875 -0.15625q-0.453125 0.078125 -1.3125 0.8125q-0.84375 0.734375 -1.15625 1.203125q-0.3125 0 -0.8125 0.625q-0.5 0.609375 -0.96875 1.078125q-0.46875 0.453125 -1.625 1.734375q-1.15625 1.28125 -2.46875 2.671875q-1.015625 0.921875 -2.328125 2.46875q-1.3125 1.546875 -2.3125 2.78125q-1.0 1.234375 -1.234375 1.234375q-1.390625 -0.078125 -2.515625 -0.921875q-1.125 -0.84375 -1.515625 -2.09375q-0.453125 -0.84375 -0.078125 -3.125q0.390625 -2.28125 1.46875 -7.3125q0.3125 -1.15625 0.578125 -2.0q0.28125 -0.859375 0.578125 -1.703125q0.3125 -0.859375 0.734375 -1.9375q0.4375 -1.078125 1.125 -2.625q0.390625 -1.09375 0.3125 -2.046875q-0.078125 -0.96875 -0.15625 -1.59375q0 -1.15625 0.734375 -1.84375q0.734375 -0.703125 1.65625 -0.96875q0.9375 -0.28125 1.484375 -0.125q2.15625 0.234375 2.921875 1.546875q0.78125 1.3125 0.859375 2.546875q0.078125 1.171875 -0.3125 2.09375q-0.375 0.921875 -0.609375 1.546875l-0.859375 2.09375q-0.765625 1.765625 -1.125 2.578125q-0.34375 0.8125 -0.390625 1.09375q-0.03125 0.265625 -0.03125 0.5q0.078125 0.234375 0.703125 -0.234375q0.625 -0.46875 1.5 -1.28125q0.890625 -0.8125 1.671875 -1.421875q1.390625 -1.15625 2.96875 -2.359375q1.59375 -1.203125 3.140625 -2.125q1.546875 -0.9375 2.546875 -1.234375q1.3125 0.21875 2.4375 1.3125q1.125 1.078125 1.4375 1.84375q0.375 1.171875 0.109375 2.09375q-0.265625 0.921875 -0.421875 1.703125q-0.078125 0.3125 -0.3125 1.171875q-0.234375 0.84375 -0.46875 1.578125q-0.21875 0.734375 -0.21875 0.734375q0 0 0.453125 -0.46875q0.46875 -0.46875 1.234375 -1.125q0.78125 -0.65625 1.546875 -1.203125q3.875 -2.9375 6.15625 -3.75q2.28125 -0.8125 3.90625 1.359375q0.921875 0.84375 1.1875 2.328125q0.28125 1.46875 0.28125 3.9375q0.078125 1.0 0.1875 2.25q0.125 1.234375 0.3125 2.15625q0.1875 0.921875 0.34375 1.15625q0.234375 0.3125 0.84375 0.59375q0.625 0.265625 1.171875 0.421875q1.078125 0.53125 1.1875 1.96875q0.125 1.421875 -1.109375 2.203125q-1.15625 0.6875 -2.4375 0.84375q-1.28125 0.15625 -2.59375 0.078125zm15.781006 3.25q-4.25 0 -6.53125 -2.46875q-2.28125 -2.484375 -2.28125 -7.578125q0 -2.78125 1.03125 -6.109375q1.046875 -3.328125 2.78125 -6.5q1.75 -3.171875 3.828125 -5.53125q2.09375 -2.359375 4.1875 -3.28125q0.765625 -0.390625 1.65625 -0.578125q0.890625 -0.203125 1.75 -0.203125q0.921875 0 2.03125 0.125q1.125 0.109375 2.140625 0.5q1.78125 0.546875 3.125 2.09375q1.359375 1.546875 1.359375 4.484375q0 0.765625 -0.15625 1.65625q-0.15625 0.890625 -0.546875 1.734375q-1.0 2.5625 -3.046875 4.890625q-2.046875 2.3125 -4.296875 3.234375q-0.609375 0.3125 -1.203125 0.4375q-0.578125 0.109375 -1.1875 0.109375q-1.625 0 -2.90625 -0.46875q-1.28125 -0.46875 -2.359375 -1.234375l-0.609375 -0.546875l-0.390625 0.78125q-0.546875 1.46875 -0.75 2.46875q-0.1875 1.0 -0.1875 1.46875q0 0.921875 0.078125 1.890625q0.078125 0.96875 0.46875 1.59375q0.3125 0.375 0.8125 0.609375q0.5 0.234375 1.28125 0.234375q0.453125 0 0.875 -0.03125q0.4375 -0.046875 0.75 -0.125q1.390625 -0.3125 2.28125 -1.046875q0.890625 -0.734375 1.890625 -1.265625l0.3125 -0.15625l-0.078125 -0.234375q1.3125 -0.6875 1.765625 -0.875q0.46875 -0.203125 0.703125 -0.359375q0.3125 -0.3125 0.703125 -0.3125q1.078125 -0.15625 2.125 0.578125q1.046875 0.734375 1.046875 1.8125q0 0.46875 -0.671875 1.484375q-0.65625 1.0 -1.625 1.96875q-0.953125 0.96875 -1.96875 1.5q-0.234375 0.078125 -0.46875 0.203125q-0.21875 0.109375 -0.453125 0.265625l0.078125 0q-0.703125 0.921875 -1.390625 0.921875l-0.625 0q-0.3125 0.546875 -2.015625 1.203125q-1.6875 0.65625 -3.3125 0.65625zm4.015625 -18.640625q0.703125 0 1.28125 -0.21875q0.578125 -0.234375 1.125 -0.546875q1.84375 -1.3125 2.390625 -3.390625q0.546875 -2.09375 -0.390625 -3.1875q-0.15625 -0.234375 -0.390625 -0.34375q-0.21875 -0.109375 -0.53125 -0.109375q-0.859375 0 -1.90625 0.546875q-1.03125 0.53125 -2.046875 1.53125q-1.0 1.0 -1.84375 2.40625l-1.015625 1.609375q0.15625 -0.0625 0.265625 -0.09375q0.125 -0.046875 0.203125 -0.046875q0.703125 0 0.921875 0.46875q0.234375 0.453125 0.578125 0.921875q0.359375 0.453125 1.359375 0.453125zm34.86917 17.09375l0.625 -3.640625q0.546875 -3.46875 1.078125 -6.484375q0.546875 -3.015625 1.046875 -4.875q0.5 -1.859375 0.65625 -1.859375q0.3125 -0.15625 0.3125 -0.65625q0 -0.5 0.078125 -1.28125l0.15625 -1.921875l-1.15625 0.15625q-0.9375 -0.15625 -1.09375 -0.390625q-0.15625 -0.234375 -0.15625 -1.390625q0.078125 -0.78125 0.234375 -1.703125q0.15625 -0.921875 0.859375 -1.0q1.234375 -0.390625 2.578125 -1.4375q1.359375 -1.046875 1.28125 -1.8125q0.078125 -0.625 0.578125 -1.78125q0.5 -1.15625 1.34375 -2.8125q0.859375 -1.671875 1.875 -3.609375q0.296875 -1.0 0.5625 -2.046875q0.28125 -1.046875 0.28125 -1.578125q0.15625 -0.625 0.390625 -1.390625q0.234375 -0.78125 0.234375 -1.09375q0.453125 -0.84375 0.140625 -0.953125q-0.296875 -0.125 -1.453125 0.03125q0 0 -0.703125 0.125q-0.6875 0.109375 -1.546875 0.03125q-1.234375 0.3125 -1.703125 -0.609375q-0.46875 -0.9375 -0.765625 -1.5625q-0.703125 -0.6875 -0.59375 -1.453125q0.125 -0.78125 0.828125 -0.703125q0.375 0.078125 0.640625 -0.109375q0.28125 -0.203125 0.59375 -0.515625q0.3125 -0.3125 1.46875 -0.890625q1.15625 -0.578125 2.859375 -0.65625q0.765625 -0.078125 2.265625 -0.390625q1.515625 -0.3125 2.828125 -0.6875q1.328125 -0.390625 1.484375 -0.546875q0 -0.390625 0.421875 -0.390625q0.421875 0 0.734375 0q0.3125 -0.078125 1.1875 -0.1875q0.890625 -0.109375 1.125 -0.046875q0.625 -0.296875 2.703125 -0.484375q2.09375 -0.203125 6.34375 -0.125q1.234375 0.078125 2.078125 0.125q0.859375 0.03125 0.859375 -0.28125q0 0 1.0 0.125q1.015625 0.109375 2.25 0.5q1.859375 0.078125 3.125 0.421875q1.28125 0.34375 1.96875 1.546875q0.703125 1.1875 0.546875 3.828125l-0.296875 1.78125l-2.09375 -0.703125q-0.625 -0.078125 -2.015625 -0.265625q-1.390625 -0.203125 -3.015625 -0.34375q-1.625 -0.15625 -3.09375 -0.234375q-1.46875 -0.078125 -2.15625 0.078125q-0.78125 0 -1.640625 0.109375q-0.84375 0.109375 -1.6875 0.03125q-1.078125 0.3125 -2.046875 0.3125q-0.96875 0 -1.28125 -0.078125q-0.765625 0.3125 -1.34375 0.3125q-0.578125 0 -1.046875 0.390625q0 0 -0.4375 0.234375q-0.421875 0.234375 -0.71875 0.234375q-0.3125 -0.078125 -0.3125 0.46875q0 0.53125 -0.15625 1.6875q0.078125 1.078125 -0.078125 1.515625q-0.15625 0.421875 -0.625 1.3125q-0.453125 0.890625 -1.46875 3.4375q-0.453125 1.3125 -1.078125 2.328125q-0.625 1.0 -0.765625 1.84375q-0.859375 2.328125 -1.625 3.5625q0.140625 0.765625 0.25 0.8125q0.125 0.03125 0.671875 -0.421875q0.625 0.21875 1.046875 0q0.421875 -0.234375 0.734375 -0.3125q0.3125 0 0.65625 0q0.34375 0 0.890625 0.15625q-0.078125 -0.3125 0.609375 -0.34375q0.703125 -0.046875 1.546875 -0.125q0.859375 -0.390625 2.125 -0.578125q1.28125 -0.1875 1.828125 -0.5q0.84375 -0.390625 1.1875 -0.390625q0.359375 0 1.359375 0.46875q0.546875 0.6875 0.765625 1.9375q0.234375 1.234375 0.15625 2.359375q-0.0625 1.109375 -0.453125 1.421875q0 0 -0.78125 0.28125q-0.765625 0.265625 -1.625 0.5625q-0.84375 -0.15625 -1.625 0q-0.765625 0.15625 -1.078125 0.3125q-1.625 1.0 -5.328125 0.703125q-0.546875 0.375 -1.28125 0.375q-0.734375 0 -1.125 0.3125q-0.234375 0 -0.890625 0.125q-0.65625 0.109375 -0.96875 0.03125q-0.296875 0 -0.375 0.4375q-0.078125 0.421875 -0.078125 0.71875q0 0.3125 -0.234375 0.625q-0.234375 0.3125 -0.234375 0.3125q-0.46875 0.453125 -0.546875 1.0q0 0 -0.046875 0.9375q-0.03125 0.921875 -0.40625 2.0q-0.625 2.015625 -1.203125 4.296875q-0.578125 2.28125 -0.890625 3.984375q-0.3125 1.703125 -0.15625 2.0q0.3125 0.3125 1.125 0.28125q0.8125 -0.046875 1.203125 0.03125q0.375 -0.3125 0.71875 0.234375q0.359375 0.546875 0.4375 1.390625q-0.078125 0.3125 -1.203125 1.46875q-1.125 1.15625 -1.96875 2.25q-1.0 2.390625 -2.125 3.0q-1.125 0.625 -2.671875 -0.765625l-3.484375 -2.9375zm39.832764 0.859375q-1.0 0.0625 -1.625 -0.203125q-0.625 -0.265625 -1.546875 -0.8125q-1.703125 -1.3125 -2.828125 -3.234375q-1.109375 -1.9375 -1.03125 -3.265625q0.140625 -0.6875 0.03125 -1.21875q-0.109375 -0.546875 -0.109375 -0.546875q-0.46875 -0.390625 -0.3125 -0.5q0.15625 -0.125 0.234375 -0.4375q0.609375 -0.15625 0.15625 -0.84375q-0.234375 -0.625 0.265625 -2.828125q0.5 -2.203125 1.34375 -4.140625q0.390625 -0.84375 1.125 -2.234375q0.734375 -1.390625 1.65625 -2.8125q0.9375 -1.4375 1.71875 -2.296875q1.6875 -1.921875 3.046875 -3.15625q1.359375 -1.25 3.046875 -1.859375q1.546875 -0.625 3.125 -0.546875q1.59375 0.078125 2.84375 1.078125q1.84375 0.546875 3.3125 1.671875q1.46875 1.109375 2.015625 3.125q0.625 2.25 0.421875 5.3125q-0.1875 3.046875 -2.65625 7.828125q-1.484375 3.015625 -2.921875 4.875q-1.421875 1.859375 -3.421875 3.5625q-1.46875 1.234375 -3.796875 2.171875q-2.3125 0.921875 -4.09375 1.3125zm6.71875 -11.6875q1.015625 -1.390625 1.59375 -2.703125q0.578125 -1.3125 1.125 -3.640625q0.234375 -0.84375 0.265625 -2.078125q0.03125 -1.234375 -0.078125 -2.28125q-0.109375 -1.046875 -0.578125 -1.125q-1.0 -0.390625 -2.046875 -0.03125q-1.046875 0.34375 -2.4375 1.890625q-1.234375 1.390625 -1.96875 2.59375q-0.734375 1.1875 -1.328125 2.859375q-0.578125 1.65625 -1.265625 4.28125q-0.625 2.5625 -0.046875 4.109375q0.59375 1.546875 2.28125 0.859375q1.703125 -0.703125 4.484375 -4.734375zm19.883453 9.359375q-0.234375 0.078125 -0.96875 -0.078125q-0.734375 -0.15625 -1.46875 -0.375q-0.734375 -0.234375 -0.890625 -0.390625q-0.3125 -0.3125 -0.859375 -1.125q-0.53125 -0.8125 -0.578125 -2.203125q-0.03125 -1.390625 1.28125 -3.328125q0.390625 -0.765625 0.921875 -2.3125q0.546875 -1.546875 1.125 -3.28125q0.578125 -1.75 1.078125 -3.140625q0.515625 -1.390625 0.75 -1.9375q0.140625 -1.3125 -0.125 -1.890625q-0.265625 -0.578125 -1.34375 -0.65625q-0.78125 0 -1.203125 -0.546875q-0.421875 -0.546875 -0.421875 -1.9375q0.15625 -1.078125 0.578125 -1.890625q0.421875 -0.8125 1.1875 -1.34375q0.78125 -0.390625 1.96875 -0.546875q1.203125 -0.15625 2.359375 -0.078125q1.171875 0.078125 1.640625 0.546875q0.53125 0.296875 0.875 1.34375q0.359375 1.046875 0.578125 2.140625q0.234375 1.078125 0.3125 1.609375q0.78125 -0.609375 1.75 -1.734375q0.96875 -1.125 1.96875 -2.125q1.234375 -0.859375 2.9375 -1.75q1.703125 -0.890625 2.46875 -0.890625q0.859375 0 2.09375 0.8125q1.234375 0.8125 1.546875 1.4375q0.765625 1.3125 1.109375 2.75q0.359375 1.421875 -0.484375 2.515625q-0.78125 1.0 -2.171875 1.96875q-1.390625 0.96875 -3.484375 0.578125q-0.453125 -0.15625 -0.96875 -1.15625q-0.5 -1.015625 -0.578125 -1.46875q0 -0.234375 -0.65625 0.421875q-0.65625 0.65625 -1.546875 1.59375q-0.890625 0.921875 -1.65625 1.6875q-1.3125 1.625 -2.78125 4.40625q-1.46875 2.78125 -3.484375 6.734375q-0.921875 1.9375 -1.546875 3.671875q-0.625 1.734375 -1.3125 1.96875zm42.7547 2.859375q-0.453125 -0.46875 -1.265625 -1.3125q-0.8125 -0.84375 -1.40625 -1.84375q-0.578125 -1.015625 -0.265625 -1.875q1.015625 -0.84375 1.015625 -2.078125q0.375 -1.390625 0.453125 -1.703125q0.078125 -0.3125 0.3125 -0.625q0 0 0.234375 -0.765625q0.234375 -0.78125 0.53125 -1.8125q0.3125 -1.046875 0.546875 -1.890625q0.234375 -0.859375 0.234375 -0.9375q0.078125 -0.703125 0.3125 -1.5q0.234375 -0.8125 0.3125 -1.125q0.375 -0.390625 0.71875 -1.203125q0.359375 -0.8125 0.75 -1.8125q0.078125 -1.09375 0.375 -1.625q0.3125 -0.546875 0.625 -0.78125q0.46875 -0.765625 0.46875 -1.921875q-0.3125 0 0.140625 -1.5q0.46875 -1.515625 2.09375 -5.3125q0.78125 -1.390625 1.203125 -2.578125q0.421875 -1.203125 0.421875 -1.203125q0 -0.3125 0.234375 -0.625q0.234375 -0.3125 0.46875 -1.0q0.078125 -0.390625 0.609375 -1.515625q0.546875 -1.125 0.9375 -2.28125q0.296875 -1.078125 0.71875 -2.203125q0.4375 -1.125 0.828125 -1.8125q0.234375 -1.09375 0.84375 -1.96875q0.625 -0.890625 0.859375 -1.75q0.453125 -2.546875 2.3125 -3.15625q1.859375 -0.625 3.40625 1.375q0.609375 0.859375 1.265625 0.859375q0.671875 0 2.203125 -0.859375q0.9375 0 2.90625 -0.21875q1.96875 -0.234375 3.59375 -0.546875q1.3125 0 2.625 -0.1875q1.328125 -0.203125 1.625 -0.203125l0 0l0 0q0.234375 -0.234375 1.234375 -0.1875q1.015625 0.03125 2.0625 0.3125q1.046875 0.265625 1.5 0.734375q0.15625 0.375 0.3125 1.625q0.15625 1.234375 0.15625 2.3125q0 1.078125 -0.234375 1.078125q-0.234375 0 -1.359375 0q-1.109375 0 -2.65625 0q-1.46875 0 -3.375 0.3125q-1.890625 0.3125 -2.8125 0.46875q-1.015625 0 -2.25 0.265625q-1.234375 0.265625 -2.234375 0.265625q-2.09375 0.234375 -3.03125 0.234375q-0.921875 0 -1.3125 0.203125q-0.375 0.1875 -0.84375 1.265625q-1.0 2.40625 -1.703125 4.03125q-0.6875 1.625 -1.3125 3.703125l-0.921875 3.328125l1.234375 0q2.703125 -0.15625 4.40625 -0.390625q1.703125 -0.234375 2.96875 -0.453125q1.28125 -0.234375 2.828125 -0.3125q3.171875 -0.46875 4.71875 0.578125q1.546875 1.046875 1.46875 3.046875q0 0.3125 -0.734375 1.171875q-0.734375 0.84375 -3.359375 1.234375q-1.3125 0.078125 -3.5625 0.265625q-2.234375 0.1875 -4.59375 0.390625q-2.359375 0.1875 -4.1875 0.34375q-1.8125 0.15625 -2.28125 0.15625q-1.234375 -0.15625 -1.421875 0q-0.1875 0.15625 -0.265625 0.625q0 0.296875 -0.234375 1.078125q-0.234375 0.765625 -0.3125 1.15625q-0.3125 0.46875 -0.8125 1.4375q-0.5 0.96875 -0.734375 2.046875q-0.3125 1.0 -0.546875 1.46875q-0.21875 0.46875 -0.296875 0.84375q-0.15625 0.234375 -0.59375 1.484375q-0.421875 1.234375 -1.0 2.859375q-0.578125 1.609375 -1.078125 3.15625q-0.5 1.546875 -0.8125 2.40625q-0.9375 3.09375 -1.59375 4.765625q-0.65625 1.65625 -1.46875 2.109375q-0.8125 0.46875 -2.203125 0.078125zm37.270264 -1.78125q-1.0 0 -1.578125 -0.375q-0.578125 -0.390625 -1.4375 -1.09375q-1.46875 -1.546875 -2.359375 -3.3125q-0.875 -1.78125 -0.65625 -3.09375q0.234375 -0.625 0.1875 -1.203125q-0.03125 -0.578125 -0.03125 -0.578125q-0.375 -0.390625 -0.234375 -0.5q0.15625 -0.125 0.3125 -0.4375q0.46875 0 0.3125 -0.84375q-0.15625 -0.625 0.5 -2.671875q0.65625 -2.046875 1.828125 -3.90625q0.453125 -0.765625 1.375 -2.046875q0.9375 -1.28125 2.0625 -2.546875q1.125 -1.28125 2.046875 -2.046875q1.9375 -1.625 3.59375 -2.625q1.65625 -1.015625 3.359375 -1.40625q1.703125 -0.375 3.515625 -0.375q1.828125 0 2.984375 1.234375q1.78125 0.765625 2.515625 2.078125q0.734375 1.3125 0.96875 3.40625q0.234375 2.328125 -0.46875 5.6875q-0.6875 3.359375 -3.78125 7.765625q-1.9375 2.78125 -3.796875 4.328125q-1.859375 1.546875 -4.09375 2.859375q-1.625 1.09375 -3.484375 1.328125q-1.859375 0.21875 -3.640625 0.375zm7.890625 -9.421875q1.703125 -1.46875 2.4375 -3.25q0.734375 -1.78125 1.59375 -4.1875q0.296875 -0.453125 0.40625 -1.53125q0.125 -1.09375 0.046875 -2.125q-0.078125 -1.046875 -0.53125 -1.203125q-0.703125 -0.546875 -1.40625 -0.265625q-0.6875 0.265625 -1.765625 1.03125q-2.328125 1.9375 -4.296875 4.453125q-1.96875 2.515625 -2.75 6.140625q-0.21875 1.9375 0.4375 2.90625q0.65625 0.96875 2.15625 0.546875q1.515625 -0.4375 3.671875 -2.515625zm22.195923 9.34375q-1.625 0.3125 -2.4375 -0.1875q-0.8125 -0.5 -1.65625 -1.28125q-1.234375 -0.609375 -2.25 -1.734375q-1.0 -1.125 -1.546875 -2.359375q-0.53125 -1.234375 -0.453125 -1.9375q0.21875 -2.703125 1.265625 -5.875q1.046875 -3.171875 2.703125 -6.1875q1.671875 -3.015625 3.796875 -5.375q2.125 -2.359375 4.59375 -3.4375q1.546875 -0.609375 3.328125 -0.453125q1.78125 0.140625 2.40625 1.453125q1.15625 2.25 -0.546875 2.875q-0.234375 0 -0.546875 0.1875q-0.296875 0.1875 -0.296875 0.5q0.296875 0.15625 1.6875 0.046875q1.40625 -0.125 2.828125 -0.46875q1.4375 -0.34375 1.890625 -0.734375q0.46875 -0.234375 0.703125 -0.234375q0.234375 0 1.15625 0.15625q1.3125 0.390625 1.3125 0.921875q0 0.3125 0.234375 0.96875q0.234375 0.65625 0.546875 0.65625q0.5312195 0.078125 0.265625 1.09375q-0.265625 1.0 -1.8125 2.078125q-1.46875 0.9375 -1.828125 1.203125q-0.34375 0.265625 -0.109375 1.125q0.625 1.46875 -0.078125 3.5625q-0.6875 2.078125 -2.3125 4.328125q-1.625 2.234375 -3.828125 4.203125q-2.203125 1.96875 -4.5625 3.328125q-2.359375 1.359375 -4.453125 1.578125zm0.234375 -6.484375q0.3125 0 1.078125 -0.34375q0.78125 -0.359375 1.234375 -0.59375q0.3125 -0.296875 0.8125 -0.71875q0.515625 -0.4375 0.8125 -0.515625q0.3125 0 0.390625 -0.265625q0.078125 -0.28125 0.53125 -1.15625q0.46875 -0.890625 1.859375 -2.671875q1.546875 -1.703125 2.015625 -2.75q0.46875 -1.046875 0.078125 -2.28125q-0.078125 -0.3125 -0.421875 -0.390625q-0.34375 -0.078125 -0.890625 -0.375q-0.78125 0 -1.046875 0.34375q-0.265625 0.34375 -1.125 -0.34375l-1.234375 -1.546875l-1.3125 1.3125q-1.234375 1.234375 -2.203125 3.09375q-0.96875 1.859375 -1.515625 3.796875q-0.53125 1.921875 -0.6875 3.390625q-0.078125 1.15625 0.375 1.546875q0.46875 0.390625 1.25 0.46875zm40.289642 8.03125q-0.859375 0.3125 -1.90625 0.34375q-1.03125 0.046875 -2.34375 -0.953125q-0.78125 -0.859375 -1.0625 -1.78125q-0.265625 -0.921875 -0.265625 -2.859375q0.15625 -1.15625 0.625 -3.359375q0.46875 -2.203125 1.046875 -4.640625q0.578125 -2.4375 1.078125 -4.40625q0.5 -1.984375 0.8125 -2.671875q0.546875 -1.859375 0.234375 -2.3125q-0.3125 -0.46875 -1.859375 -0.546875q-1.78125 -0.078125 -3.71875 1.703125q-1.921875 1.765625 -4.390625 5.640625q-1.859375 2.859375 -2.25 4.6875q-0.390625 1.8125 -0.078125 2.5q0.15625 0.3125 0.578125 0.359375q0.421875 0.03125 1.078125 -0.203125q0.671875 -0.234375 1.4375 -0.625q0.546875 -0.296875 1.359375 -0.640625q0.8125 -0.359375 1.578125 -0.671875q0.46875 0 0.65625 0.546875q0.203125 0.546875 0.203125 1.3125q0 0.3125 0.1875 1.171875q0.1875 0.84375 0.734375 1.15625q0.3125 0.296875 -1.28125 1.265625q-1.578125 0.96875 -4.0625 2.359375q-2.3125 0.546875 -3.4375 0.546875q-1.125 0 -2.4375 -1.015625q-2.15625 -1.3125 -2.734375 -4.859375q-0.578125 -3.5625 0.890625 -7.890625q1.46875 -3.484375 3.28125 -6.0q1.8125 -2.515625 3.828125 -4.59375q0.3125 -0.3125 1.9375 -1.234375q1.625 -0.9375 3.3125 -1.46875q1.9375 -0.625 3.28125 -0.5q1.359375 0.109375 2.609375 0.953125q1.390625 0.3125 1.890625 -0.0625q0.5 -0.390625 1.1875 -2.171875q1.40625 -3.875 2.953125 -7.84375q1.546875 -3.984375 3.234375 -8.09375q0.78125 -1.46875 0.96875 -2.28125q0.203125 -0.8125 0.5 -1.109375l2.171875 -0.703125q0.84375 -0.234375 1.96875 0.78125q1.125 1.0 1.4375 1.921875q0 0.703125 -0.625 3.0625q-0.609375 2.359375 -2.015625 5.59375q-1.234375 2.875 -2.4375 5.78125q-1.1875 2.890625 -2.265625 6.140625q-0.859375 2.390625 -1.5625 3.859375q-0.6875 1.46875 -0.921875 2.546875q-0.453125 2.015625 -1.125 3.609375q-0.65625 1.578125 -0.875 2.203125q-1.015625 2.9375 -1.5625 4.828125q-0.53125 1.890625 -0.6875 3.25q-0.15625 1.34375 -0.078125 2.625q0.078125 1.28125 0.3125 2.90625q0 0.296875 -0.4375 0.890625q-0.421875 0.578125 -0.953125 0.953125z" fill-rule="nonzero"/><path fill="#000000" fill-opacity="0.0" d="m158.27559 4.358268l402.26776 0l0 114.74016l-402.26776 0z" fill-rule="evenodd"/><path fill="#000000" d="m184.18184 92.33139q-0.625 0 -1.421875 -1.015625q-0.78125 -1.015625 -0.703125 -1.96875q0.078125 -1.25 0.703125 -3.609375q0.640625 -2.359375 1.421875 -4.796875q0.796875 -2.4375 1.421875 -3.859375q0.3125 -1.265625 0.578125 -2.234375q0.28125 -0.984375 0.359375 -1.3125q0.234375 -0.3125 0.75 -1.640625q0.515625 -1.34375 0.828125 -2.59375q0.15625 -0.640625 0.671875 -2.40625q0.515625 -1.765625 1.25 -4.125q0.75 -2.359375 1.5 -4.640625q0.75 -2.28125 1.296875 -4.015625q0.546875 -1.734375 0.703125 -2.28125q0.640625 -0.9375 0.953125 -1.796875q0.3125 -0.875 0.390625 -1.1875q0.46875 -0.3125 0.546875 -0.828125q0.078125 -0.515625 0.078125 -0.828125q0 -0.390625 0.265625 -0.625q0.28125 -0.234375 0.28125 -0.5625q0.328125 -0.234375 0.40625 -0.734375q0.078125 -0.515625 0.46875 -0.90625l0.390625 -1.34375l4.640625 -0.078125q-0.15625 0.953125 -0.46875 2.328125q-0.3125 1.375 -1.5 3.65625q-0.390625 1.5625 -0.90625 2.828125q-0.5 1.25 -0.421875 1.65625q-0.171875 0.15625 -0.6875 1.578125q-0.5 1.40625 -1.171875 3.453125q-0.671875 2.046875 -1.34375 4.09375q-0.65625 2.03125 -1.171875 3.578125q-0.515625 1.53125 -0.671875 1.921875q-0.625 1.265625 -1.421875 3.703125q-0.78125 2.4375 -2.34375 6.59375q-0.640625 1.265625 -1.546875 3.78125q-0.890625 2.515625 -1.453125 4.5625q-0.859375 3.0625 -1.21875 4.28125q-0.34375 1.21875 -0.578125 1.34375q-0.234375 0.125 -0.875 0.03125zm0.640625 -46.875q-2.203125 0.078125 -3.265625 -0.234375q-1.0625 -0.3125 -0.75 -1.578125q0.234375 -0.9375 1.015625 -1.40625q0.796875 -0.46875 2.28125 -0.703125q0.875 -0.171875 2.25 -0.40625q1.375 -0.234375 2.625 -0.46875q2.609375 -0.3125 4.296875 -0.546875q1.6875 -0.234375 3.5 -0.390625q1.8125 -0.15625 4.5625 -0.3125q2.28125 -0.15625 3.890625 -0.28125q1.609375 -0.125 1.609375 -0.125q0.234375 0 1.640625 0.171875q1.421875 0.15625 3.078125 0.390625q1.65625 0.234375 2.4375 0.546875q1.8125 0.390625 2.640625 1.109375q0.828125 0.703125 1.140625 2.03125q0.234375 0.953125 0 1.15625q-0.234375 0.1875 -0.875 0.5q-1.796875 0.546875 -2.671875 0.546875q-0.859375 0 -1.96875 -0.390625q-0.390625 -0.390625 -0.90625 -0.703125q-0.5 -0.3125 -1.71875 -0.515625q-1.21875 -0.203125 -3.8125 -0.359375q-2.203125 0.234375 -3.859375 0.234375q-1.65625 0 -1.65625 0.40625l-4.640625 0.234375l-3.84375 0.390625q-0.796875 0.078125 -2.21875 0.203125q-1.40625 0.109375 -2.75 0.234375q-1.328125 0.109375 -2.03125 0.265625zm27.212036 40.90625q-0.625 -0.625 -0.90625 -1.5625q-0.28125 -0.953125 -0.203125 -1.890625q0.078125 -0.953125 0.390625 -1.578125q0 -0.640625 0.203125 -0.984375q0.203125 -0.359375 0.125 -0.671875q-0.078125 -0.3125 0.15625 -1.09375q0.234375 -0.796875 0.46875 -1.5q0.546875 -1.265625 1.171875 -3.03125q0.640625 -1.765625 1.1875 -3.5q0.546875 -1.734375 0.9375 -2.984375q0.390625 -1.265625 0.484375 -1.578125q0 -0.9375 1.25 -1.015625q0.9375 -0.3125 1.40625 -0.03125q0.484375 0.265625 1.265625 1.515625q0.625 0.640625 0.46875 1.90625q-0.15625 1.25 -1.015625 3.125q-0.3125 0.640625 -0.75 1.828125q-0.4375 1.171875 -0.59375 2.109375q-0.3125 0.625 -0.75 1.765625q-0.421875 1.140625 -0.734375 2.171875q-0.15625 0.390625 -0.3125 1.140625q-0.15625 0.75 -0.40625 1.578125q-0.234375 0.8125 -0.625 1.453125q-0.703125 3.21875 -1.296875 3.78125q-0.59375 0.546875 -1.921875 -0.953125zm7.625 -31.9375q-0.390625 -0.390625 -0.703125 -1.140625q-0.3125 -0.75 -0.390625 -1.40625q-0.078125 -0.671875 0.15625 -0.671875q0.625 -0.078125 1.484375 -1.328125q0.875 -1.265625 0.71875 -2.21875q0 -0.3125 0.234375 -0.578125q0.234375 -0.28125 0.546875 -0.359375q0.9375 -0.625 1.84375 -0.1875q0.90625 0.421875 1.6875 1.671875q0.71875 1.5 0.40625 2.484375q-0.3125 0.984375 -1.734375 2.71875q-1.1875 1.5625 -2.171875 1.71875q-0.96875 0.15625 -2.078125 -0.703125zm41.6931 31.15625q-0.390625 -0.15625 -1.1875 -0.78125q-0.78125 -0.640625 -1.34375 -2.171875q-0.546875 -1.53125 -0.546875 -4.296875q0.078125 -2.359375 0.109375 -3.6875q0.046875 -1.34375 -0.578125 -1.34375q-0.625 0 -2.4062653 1.21875q-1.765625 1.21875 -4.046875 3.265625q-2.28125 2.046875 -4.640625 4.5625q-0.78125 0.875 -1.53125 1.625q-0.75 0.734375 -1.453125 0.9375q-0.703125 0.1875 -1.65625 -0.515625l-0.859375 -0.703125q-0.390625 -0.390625 -0.46875 -0.828125q-0.078125 -0.4375 0.078125 -0.984375l1.8125 -5.1875q1.25 -2.828125 1.71875 -4.125q0.484375 -1.3125 0.484375 -1.65625q0 -0.359375 -0.25 -0.28125q-0.625 0.078125 -1.890625 0.75q-1.25 0.671875 -1.640625 1.296875q-0.3125 0 -0.953125 0.71875q-0.625 0.703125 -1.5625 1.328125q-0.546875 0.9375 -2.171875 2.4375q-1.609375 1.5 -3.171875 3.0625q-1.03125 0.875 -2.015625 2.140625q-0.984375 1.25 -1.65625 2.203125q-0.65625 0.9375 -0.890625 0.9375q-1.03125 0 -1.859375 -0.546875q-0.828125 -0.5625 -1.21875 -1.8125q-0.625 -1.34375 0 -3.734375q0.640625 -2.40625 1.421875 -6.265625q0.3125 -1.171875 0.390625 -1.71875q0.078125 -0.5625 0.265625 -1.140625q0.203125 -0.59375 0.71875 -1.84375q0.515625 -1.265625 1.609375 -3.78125q0.546875 -1.5 0.671875 -2.25q0.125 -0.75 0.125 -1.0625q0 -0.78125 0.421875 -1.328125q0.4375 -0.5625 1.0625 -0.796875q0.625 -0.234375 1.1875 -0.078125q0.859375 0.15625 1.53125 0.875q0.671875 0.703125 0.75 1.953125q0.078125 0.953125 -0.171875 1.703125q-0.234375 0.734375 -0.46875 1.375l-0.859375 2.125q-0.390625 0.859375 -1.03125 2.515625q-0.625 1.640625 -1.09375 3.03125q-0.46875 1.375 -0.46875 1.609375q0.078125 0.234375 0.546875 -0.109375q0.46875 -0.359375 1.21875 -1.03125q0.75 -0.671875 1.53125 -1.296875q1.65625 -1.578125 3.734375 -3.03125q2.09375 -1.453125 3.96875 -2.46875q1.890625 -1.03125 2.921875 -1.34375q1.328125 0 1.84375 0.46875q0.515625 0.46875 1.765625 1.734375q0.5625 0.546875 0.640625 1.421875q0.078125 0.859375 -0.078125 1.640625q-0.078125 0.3125 -0.484375 1.53125q-0.390625 1.21875 -0.75 2.328125q-0.34375 1.09375 -0.34375 1.09375q0 0 0.90625 -0.78125q0.90625 -0.796875 2.0 -1.6875q1.109375 -0.90625 1.65625 -1.390625q3.0625 -2.359375 5.3437653 -2.984375q2.28125 -0.625 3.703125 1.65625q0.9375 0.859375 0.96875 1.890625q0.046875 1.015625 0.046875 3.53125q0.078125 1.03125 0.15625 2.453125q0.078125 1.40625 0.203125 2.546875q0.125 1.140625 0.28125 1.375q0.234375 0.3125 0.890625 0.515625q0.671875 0.1875 1.78125 0.34375q1.171875 0.15625 1.40625 1.03125q0.234375 0.859375 -1.015625 1.65625q-1.1875 0.703125 -2.609375 0.625q-1.40625 -0.078125 -2.5 -0.46875zm16.12558 3.53125q-3.46875 0 -5.671875 -2.625q-2.203125 -2.640625 -2.125 -6.578125q0.15625 -2.828125 1.140625 -6.09375q0.984375 -3.265625 2.640625 -6.296875q1.65625 -3.03125 3.609375 -5.3125q1.96875 -2.28125 4.09375 -3.21875q0.796875 -0.390625 1.6875 -0.625q0.90625 -0.234375 1.859375 -0.234375q0.859375 0 1.796875 0.28125q0.953125 0.265625 1.578125 0.578125q1.34375 0.546875 2.046875 1.34375q0.703125 0.78125 1.265625 2.4375q0.234375 1.484375 0.234375 2.125q0 0.625 -0.390625 1.875q-0.953125 2.84375 -2.453125 4.890625q-1.484375 2.03125 -4.0 3.453125q-0.625 0.390625 -1.453125 0.59375q-0.828125 0.1875 -1.703125 0.1875q-1.5625 0 -3.015625 -0.578125q-1.453125 -0.59375 -2.328125 -1.78125l-0.546875 -0.625l-0.234375 0.625q-0.796875 2.125 -1.234375 3.9375q-0.421875 1.8125 -0.421875 3.296875q0 0.953125 0.1875 1.828125q0.203125 0.859375 0.59375 1.484375q0.328125 0.46875 1.0625 0.671875q0.75 0.1875 1.625 0.1875q0.546875 0 1.125 -0.03125q0.59375 -0.046875 1.15625 -0.28125q1.328125 -0.46875 2.15625 -1.015625q0.828125 -0.5625 1.6875 -1.1875l0.3125 -0.15625l-0.078125 0q0.953125 -0.46875 1.6875 -0.9375q0.75 -0.46875 0.75 -0.46875q0.328125 0 0.640625 -0.40625q0.625 -0.3125 1.609375 0.25q0.984375 0.546875 0.984375 1.40625q-0.078125 0.390625 -0.71875 1.21875q-0.625 0.828125 -1.375 1.546875q-0.734375 0.703125 -1.21875 0.78125q-0.078125 0.078125 -0.546875 0.28125q-0.46875 0.1875 -0.625 0.34375l0.078125 0q-0.703125 0.9375 -1.421875 0.9375l-0.625 0q-0.3125 0.5625 -2.046875 1.234375q-1.734375 0.65625 -3.375 0.65625zm3.53125 -17.296875q1.421875 0 2.484375 -0.828125q1.0625 -0.828125 1.84375 -1.859375q1.578125 -2.109375 1.84375 -4.109375q0.28125 -2.015625 -0.5 -2.8125q-0.484375 -0.234375 -0.84375 -0.265625q-0.34375 -0.046875 -1.359375 0.265625q-0.71875 0.171875 -1.984375 1.1875q-1.25 1.015625 -2.46875 2.28125q-1.21875 1.265625 -1.84375 2.125l-1.015625 1.65625q0.625 -0.234375 1.203125 -0.28125q0.59375 -0.046875 0.671875 0.125q0 0.703125 0.28125 1.296875q0.28125 0.578125 0.703125 0.90625q0.4375 0.3125 0.984375 0.3125zm37.285583 16.90625l0.625 -3.703125q0.5625 -3.53125 1.109375 -6.59375q0.546875 -3.078125 1.046875 -4.953125q0.515625 -1.890625 0.6875 -1.890625q0.3125 -0.171875 0.3125 -0.671875q0 -0.515625 0.078125 -1.296875l0.15625 -1.96875l-1.1875 0.15625q-0.9375 -0.15625 -1.09375 -0.390625q-0.15625 -0.234375 -0.15625 -1.421875q0.078125 -0.78125 0.234375 -1.140625q0.15625 -0.359375 0.859375 -0.4375q1.265625 -0.390625 2.640625 -1.453125q1.375 -1.0625 1.296875 -1.84375q0.078125 -0.625 0.578125 -2.546875q0.515625 -1.9375 1.375 -4.328125q0.875 -2.40625 1.90625 -4.375q0.3125 -1.015625 0.578125 -2.078125q0.28125 -1.0625 0.28125 -1.609375q0.15625 -0.640625 0.390625 -1.421875q0.234375 -0.78125 0.234375 -1.109375q0.46875 -0.859375 0.15625 -0.96875q-0.3125 -0.125 -1.484375 0.03125q0 0 -0.71875 0.125q-0.703125 0.109375 -1.5625 0.03125q-1.265625 0.3125 -1.734375 0.234375q-0.46875 -0.078125 -0.78125 -0.703125q-0.71875 -0.703125 -0.609375 -1.484375q0.125 -0.796875 0.84375 -0.71875q0.390625 0.078125 0.65625 -0.109375q0.28125 -0.203125 0.59375 -0.515625q0.3125 -0.3125 1.484375 -0.75q1.1875 -0.4375 2.921875 -0.515625q0.78125 -0.078125 1.921875 -0.34375q1.140625 -0.28125 2.078125 -0.671875q0.953125 -0.390625 1.109375 -0.5625q0 -0.390625 0.4375 -0.390625q0.4375 0 0.75 0q0.3125 -0.078125 1.21875 -0.1875q0.90625 -0.125 1.140625 -0.046875q0.625 -0.3125 2.75 -0.5q2.125 -0.203125 6.453125 -0.125q1.25 0.078125 2.109375 0.125q0.875 0.03125 0.875 -0.28125q0 0 1.015625 0.125q1.03125 0.109375 2.296875 0.5q1.875 0.078125 2.96875 0.515625q1.109375 0.4375 1.625 1.296875q0.515625 0.859375 0.515625 2.359375l0.3125 1.8125l-2.125 -0.71875q-0.625 -0.078125 -2.203125 -0.265625q-1.578125 -0.203125 -3.421875 -0.359375q-1.84375 -0.15625 -3.5 -0.265625q-1.65625 -0.125 -2.359375 0.03125q-0.78125 0 -1.65625 0.125q-0.859375 0.109375 -1.71875 0.03125q-1.109375 0.3125 -2.09375 0.3125q-0.984375 0 -1.296875 -0.078125q-0.78125 0.3125 -1.375 0.3125q-0.59375 0 -1.0625 0.40625q0 0 -0.4375 0.234375q-0.421875 0.234375 -0.734375 0.234375q-0.328125 -0.078125 -0.328125 0.3125q0 0.390625 -0.15625 1.578125q0.078125 1.09375 -0.078125 1.96875q-0.15625 0.859375 -0.625 2.203125q-0.46875 1.328125 -1.5 3.921875q-0.46875 1.34375 -1.09375 2.953125q-0.625 1.609375 -0.78125 2.46875q-0.875 2.359375 -1.65625 3.625q0.15625 0.78125 0.265625 0.828125q0.125 0.03125 0.671875 -0.4375q0.640625 0.234375 1.0625 0q0.4375 -0.234375 0.75 -0.3125q0.3125 0 0.65625 0q0.359375 0 0.921875 0.15625q-0.078125 -0.3125 0.625 -0.34375q0.703125 -0.046875 1.578125 -0.125q0.859375 -0.390625 2.15625 -0.59375q1.296875 -0.203125 1.84375 -0.515625q0.875 -0.390625 1.21875 -0.390625q0.359375 0 1.390625 0.46875q0.546875 0.71875 0.78125 1.703125q0.234375 0.984375 0.15625 1.8125q-0.078125 0.8125 -0.46875 1.125q0 0 -0.796875 0.28125q-0.78125 0.28125 -1.640625 0.59375q-0.875 -0.15625 -1.65625 0q-0.78125 0.15625 -1.109375 0.3125q-1.640625 1.015625 -5.421875 0.703125q-0.546875 0.390625 -1.296875 0.390625q-0.75 0 -1.140625 0.328125q-0.234375 0 -0.90625 0.125q-0.671875 0.109375 -0.984375 0.03125q-0.3125 0 -0.390625 0.4375q-0.078125 0.421875 -0.078125 0.734375q0 0.3125 -0.234375 0.640625q-0.234375 0.3125 -0.234375 0.3125q-0.46875 0.46875 -0.546875 1.015625q0 0 -0.046875 0.953125q-0.03125 0.9375 -0.4375 2.03125q-0.625 2.046875 -1.171875 4.171875q-0.546875 2.125 -0.796875 3.65625q-0.234375 1.53125 -0.0625 1.84375q0.3125 0.328125 0.625 0.5625q0.3125 0.234375 0.703125 0.3125q0.390625 -0.3125 0.75 0.234375q0.359375 0.546875 0.4375 1.421875q-0.078125 0.3125 -0.71875 1.21875q-0.625 0.890625 -1.484375 2.0q-1.03125 2.4375 -2.171875 2.671875q-1.140625 0.234375 -2.703125 -1.171875l-1.1875 -1.421875zm38.465668 -0.3125q-1.03125 0.078125 -1.65625 -0.1875q-0.625 -0.28125 -1.578125 -0.84375q-1.71875 -1.328125 -2.546875 -2.703125q-0.828125 -1.375 -0.75 -2.71875q0.15625 -0.703125 0.03125 -1.25q-0.109375 -0.5625 -0.109375 -0.5625q-0.46875 -0.390625 -0.3125 -0.5q0.15625 -0.125 0.234375 -0.4375q0.625 -0.15625 0.15625 -0.875q-0.234375 -0.625 0.265625 -2.859375q0.515625 -2.25 1.390625 -4.21875q0.390625 -0.859375 1.140625 -2.265625q0.75 -1.421875 1.6875 -2.875q0.9375 -1.453125 1.734375 -2.328125q1.71875 -1.96875 3.09375 -2.953125q1.390625 -0.984375 3.109375 -1.609375q1.578125 -0.625 2.28125 -0.703125q0.71875 -0.078125 1.96875 0.9375q1.890625 0.5625 2.875 1.546875q0.984375 0.96875 1.53125 3.015625q0.625 2.28125 0.421875 5.390625q-0.1875 3.109375 -2.703125 7.984375q-1.5 3.0625 -2.953125 4.640625q-1.453125 1.578125 -3.5 3.296875q-1.484375 1.265625 -2.75 1.984375q-1.25 0.703125 -3.0625 1.09375zm6.296875 -9.359375q1.5625 -2.359375 2.46875 -4.359375q0.90625 -2.015625 1.453125 -5.078125q0.15625 -0.875 0.078125 -2.171875q-0.078125 -1.296875 -0.359375 -2.390625q-0.265625 -1.109375 -0.734375 -1.1875q-1.03125 -0.390625 -2.296875 -0.03125q-1.25 0.34375 -2.734375 1.921875q-1.34375 1.578125 -2.40625 3.546875q-1.0625 1.953125 -1.9375 4.3125q-0.859375 2.359375 -1.640625 5.046875q-0.78125 2.984375 0.109375 4.5625q0.90625 1.5625 3.03125 0.75q2.125 -0.828125 4.96875 -4.921875zm18.3125 7.390625q-0.234375 0.078125 -0.78125 -0.078125q-0.546875 -0.15625 -1.109375 -0.390625q-0.546875 -0.234375 -0.703125 -0.390625q-0.3125 -0.328125 -0.59375 -0.953125q-0.265625 -0.625 -0.03125 -1.84375q0.234375 -1.21875 1.578125 -3.1875q0.390625 -0.78125 0.9375 -2.359375q0.546875 -1.578125 1.140625 -3.34375q0.59375 -1.765625 1.09375 -3.171875q0.515625 -1.421875 0.75 -1.984375q0.171875 -1.328125 -0.109375 -1.921875q-0.28125 -0.59375 -1.375 -0.671875q-0.796875 0 -1.234375 -0.15625q-0.421875 -0.15625 -0.421875 -1.578125q0.15625 -1.09375 0.59375 -1.515625q0.4375 -0.4375 1.21875 -1.0q0.78125 -0.390625 1.609375 -0.546875q0.828125 -0.15625 1.609375 -0.078125q0.796875 0.078125 1.265625 0.546875q0.546875 0.3125 0.703125 1.375q0.15625 1.0625 0.1875 2.171875q0.046875 1.09375 0.125 1.65625q0.796875 -0.640625 2.171875 -1.78125q1.375 -1.140625 2.390625 -2.15625q1.265625 -0.875 2.984375 -1.765625q1.734375 -0.90625 2.53125 -0.90625q0.859375 0 1.71875 0.4375q0.875 0.421875 1.1875 1.046875q0.78125 1.34375 0.734375 2.375q-0.03125 1.015625 -0.890625 2.109375q-0.796875 1.03125 -1.9375 1.421875q-1.140625 0.390625 -1.453125 0.390625q-0.46875 0 -1.171875 -0.703125q-0.703125 -0.71875 -0.796875 -1.1875q0 -0.234375 -0.984375 0.4375q-0.96875 0.671875 -2.15625 1.65625q-1.171875 0.984375 -1.96875 1.765625q-1.328125 1.65625 -2.828125 4.484375q-1.5 2.828125 -3.53125 6.84375q-0.953125 1.96875 -1.34375 3.34375q-0.390625 1.375 -1.109375 1.609375zm43.58542 2.515625q-0.46875 -0.46875 -0.953125 -0.984375q-0.46875 -0.515625 -0.671875 -1.21875q-0.1875 -0.703125 0.125 -1.578125q1.03125 -0.859375 1.03125 -2.125q0.390625 -1.40625 0.46875 -1.71875q0.078125 -0.3125 0.3125 -0.640625q0 0 0.234375 -0.78125q0.234375 -0.78125 0.546875 -1.84375q0.3125 -1.0625 0.546875 -1.921875q0.25 -0.875 0.25 -0.953125q0.078125 -0.703125 0.3125 -1.53125q0.234375 -0.828125 0.3125 -1.140625q0.390625 -0.390625 0.734375 -1.21875q0.359375 -0.828125 0.765625 -1.84375q0.078125 -1.109375 0.390625 -1.65625q0.3125 -0.546875 0.625 -0.78125q0.46875 -0.796875 0.46875 -1.96875q-0.3125 0 0.15625 -1.53125q0.46875 -1.546875 2.125 -5.390625q0.796875 -1.421875 1.21875 -2.640625q0.4375 -1.21875 0.4375 -1.21875q0 -0.3125 0.234375 -0.625q0.234375 -0.3125 0.46875 -1.03125q0.078125 -0.390625 0.625 -1.53125q0.5625 -1.140625 0.953125 -2.3125q0.3125 -1.109375 0.734375 -2.25q0.4375 -1.140625 0.84375 -1.84375q0.234375 -1.109375 0.8125 -2.046875q0.59375 -0.9375 0.90625 -1.734375q0.40625 -1.328125 1.734375 -1.71875q1.34375 -0.40625 2.59375 0.234375q0.625 0.859375 1.296875 0.859375q0.671875 0 2.25 -0.859375q0.9375 0 2.9375 -0.234375q2.015625 -0.25 3.671875 -0.5625q1.328125 0 2.65625 -0.1875q1.34375 -0.203125 1.65625 -0.203125l0 0l0 0q0.25 -0.234375 1.265625 -0.1875q1.015625 0.03125 2.078125 0.3125q1.0625 0.265625 1.546875 0.734375q0.15625 0.40625 0.3125 1.234375q0.15625 0.8125 0.15625 1.484375q0 0.671875 -0.234375 0.671875q-0.234375 0 -1.375 0q-1.140625 0 -2.71875 0q-1.5 0 -3.421875 0.3125q-1.921875 0.3125 -2.875 0.46875q-1.015625 0 -2.28125 0.28125q-1.25 0.28125 -2.28125 0.28125q-2.125 0.234375 -3.1875 0.546875q-1.0625 0.3125 -1.578125 0.828125q-0.5 0.5 -0.96875 1.609375q-1.03125 2.4375 -2.015625 4.71875q-0.984375 2.28125 -1.609375 4.40625l-0.9375 3.375l1.25 0q2.75 -0.15625 4.5625 -0.390625q1.8125 -0.234375 3.21875 -0.46875q1.421875 -0.234375 3.0 -0.3125q3.21875 -0.46875 5.109375 -0.03125q1.890625 0.421875 1.8125 2.46875q0 0.3125 -0.671875 0.828125q-0.671875 0.5 -3.34375 0.90625q-1.328125 0.078125 -3.734375 0.28125q-2.390625 0.1875 -5.0 0.390625q-2.59375 0.1875 -4.5625 0.34375q-1.953125 0.15625 -2.4375 0.15625q-1.25 -0.15625 -1.453125 0q-0.1875 0.15625 -0.265625 0.625q0 0.3125 -0.25 1.109375q-0.234375 0.78125 -0.3125 1.171875q-0.3125 0.46875 -0.703125 1.453125q-0.390625 0.984375 -0.625 2.09375q-0.3125 1.015625 -0.671875 1.84375q-0.359375 0.828125 -0.4375 1.21875q-0.15625 0.234375 -0.59375 1.5q-0.421875 1.25 -0.984375 2.90625q-0.546875 1.65625 -1.0625 3.234375q-0.5 1.5625 -0.8125 2.421875q-0.953125 3.15625 -1.46875 4.578125q-0.5 1.40625 -1.171875 1.5625q-0.671875 0.15625 -2.078125 -0.234375zm38.700073 -1.265625q-1.03125 0 -1.625 -0.390625q-0.578125 -0.390625 -1.453125 -1.09375q-1.484375 -1.578125 -2.125 -3.03125q-0.625 -1.453125 -0.390625 -2.796875q0.234375 -0.625 0.1875 -1.203125q-0.03125 -0.59375 -0.03125 -0.59375q-0.390625 -0.40625 -0.234375 -0.515625q0.15625 -0.125 0.3125 -0.4375q0.484375 0 0.328125 -0.859375q-0.15625 -0.640625 0.625 -2.75q0.78125 -2.125 1.96875 -4.015625q0.46875 -0.78125 1.40625 -2.078125q0.953125 -1.3125 2.09375 -2.609375q1.140625 -1.296875 2.078125 -2.078125q1.96875 -1.65625 3.453125 -2.4375q1.5 -0.78125 3.234375 -1.1875q1.734375 -0.390625 2.390625 -0.390625q0.671875 0 1.859375 1.265625q1.8125 0.78125 2.625 1.890625q0.828125 1.09375 1.0625 3.21875q0.25 2.359375 -0.34375 5.390625q-0.59375 3.03125 -3.734375 7.515625q-1.96875 2.828125 -3.625 4.203125q-1.65625 1.375 -3.9375 2.71875q-1.640625 1.09375 -2.984375 1.609375q-1.328125 0.5 -3.140625 0.65625zm7.546875 -8.328125q1.890625 -2.125 3.03125 -4.015625q1.140625 -1.890625 2.15625 -4.796875q0.3125 -0.859375 0.390625 -2.15625q0.078125 -1.296875 -0.046875 -2.4375q-0.109375 -1.140625 -0.578125 -1.296875q-0.9375 -0.5625 -2.28125 -0.359375q-1.328125 0.1875 -2.90625 1.53125q-2.4375 2.046875 -4.25 5.078125q-1.8125 3.03125 -3.53125 6.875q-1.1875 2.828125 -0.515625 4.53125q0.671875 1.6875 2.90625 1.171875q2.25 -0.515625 5.625 -4.125zm23.046875 6.53125q-1.65625 0.3125 -2.09375 0.203125q-0.421875 -0.125 -1.28125 -0.921875q-1.265625 -0.625 -2.09375 -1.5625q-0.828125 -0.953125 -1.1875 -2.015625q-0.34375 -1.0625 -0.265625 -1.765625q0.234375 -2.75 1.328125 -5.890625q1.109375 -3.15625 2.671875 -6.0625q1.578125 -2.90625 3.421875 -4.984375q1.859375 -2.09375 3.59375 -2.71875q1.5625 -0.640625 2.984375 -0.484375q1.421875 0.15625 2.046875 1.5q1.171875 2.28125 -0.546875 2.90625q-0.234375 0 -0.5625 0.203125q-0.3125 0.1875 -0.3125 0.515625q0.3125 0.15625 1.734375 0.046875q1.421875 -0.125 2.875 -0.484375q1.453125 -0.359375 1.921875 -0.75q0.46875 -0.234375 0.703125 -0.234375q0.25 0 1.1875 0.15625q1.34375 0.390625 1.34375 0.9375q0 0.328125 0.234375 0.609375q0.23434448 0.265625 0.5468445 0.265625q0.546875 0.078125 -0.125 0.703125q-0.6562195 0.625 -2.2343445 1.734375q-1.5 0.9375 -1.859375 1.21875q-0.34375 0.28125 -0.109375 1.140625q0.625 1.5 0.078125 3.46875q-0.546875 1.953125 -1.96875 4.0q-1.40625 2.046875 -3.421875 3.828125q-2.0 1.765625 -4.25 2.984375q-2.234375 1.21875 -4.359375 1.453125zm-1.34375 -3.46875q0.328125 0 1.109375 -0.34375q0.78125 -0.359375 1.25 -0.59375q0.328125 -0.3125 0.828125 -0.75q0.515625 -0.4375 0.828125 -0.515625q0.3125 0 0.78125 -0.265625q0.484375 -0.28125 1.34375 -1.1875q0.859375 -0.90625 2.28125 -2.71875q1.578125 -1.71875 2.4375 -3.171875q0.859375 -1.46875 0.46875 -2.71875q-0.078125 -0.3125 -0.4375 -0.390625q-0.34375 -0.078125 -0.890625 -0.390625q-0.796875 0 -1.46875 -0.4375q-0.65625 -0.4375 -1.53125 -1.140625l-1.25 -1.578125l-1.34375 1.34375q-1.25 1.25 -2.625 3.734375q-1.375 2.46875 -2.328125 5.03125q-0.9375 2.5625 -1.09375 4.046875q-0.078125 1.1875 0.390625 1.578125q0.46875 0.390625 1.25 0.46875zm38.390594 6.21875q-0.859375 0.3125 -1.21875 0.203125q-0.359375 -0.125 -1.6875 -1.15625q-0.5625 -0.9375 -0.6875 -1.6875q-0.109375 -0.75 -0.109375 -2.703125q0.15625 -1.1875 0.671875 -3.390625q0.515625 -2.203125 1.21875 -4.640625q0.71875 -2.4375 1.296875 -4.40625q0.59375 -1.96875 0.90625 -2.671875q0.546875 -1.890625 0.234375 -2.3125q-0.3125 -0.4375 -1.890625 -0.59375q-3.140625 -0.390625 -5.65625 2.046875q-2.515625 2.4375 -5.03125 6.359375q-1.890625 2.921875 -2.25 5.0q-0.34375 2.078125 -0.109375 2.875q0.234375 0.625 1.09375 0.671875q0.875 0.03125 1.9375 -0.359375q1.0625 -0.390625 1.84375 -0.78125q0.546875 -0.328125 1.375 -0.671875q0.828125 -0.359375 1.609375 -0.671875q0.46875 0 0.671875 0.28125q0.203125 0.265625 0.203125 1.0625q0 0.3125 0.234375 0.546875q0.234375 0.234375 0.546875 0.390625q0.3125 0.3125 -0.90625 1.421875q-1.21875 1.09375 -3.734375 2.515625q-2.359375 0.546875 -3.8125 0.546875q-1.453125 0 -2.796875 -1.015625q-2.203125 -1.34375 -2.484375 -4.375q-0.265625 -3.03125 1.234375 -7.4375q1.484375 -3.53125 3.296875 -5.765625q1.8125 -2.25 3.859375 -4.375q0.3125 -0.3125 1.453125 -0.984375q1.140625 -0.671875 2.859375 -1.21875q1.96875 -0.625 3.703125 -0.78125q1.734375 -0.15625 2.984375 0.703125q1.421875 0.3125 1.8125 -0.109375q0.390625 -0.4375 1.34375 -2.796875q1.5625 -3.9375 3.0625 -7.984375q1.5 -4.046875 3.21875 -8.21875q0.796875 -1.5 0.984375 -2.328125q0.203125 -0.828125 0.515625 -1.140625l1.5 0q0.3125 0 1.09375 0.5625q0.796875 0.546875 1.109375 1.484375q0 0.71875 -0.640625 3.125q-0.625 2.390625 -2.03125 5.6875q-1.265625 2.90625 -2.484375 5.859375q-1.21875 2.953125 -2.328125 6.25q-0.859375 2.4375 -1.578125 3.9375q-0.703125 1.5 -0.9375 2.59375q-0.46875 2.046875 -1.140625 3.65625q-0.65625 1.609375 -0.90625 2.25q-1.015625 2.984375 -1.65625 4.828125q-0.625 1.84375 -0.9375 3.078125q-0.3125 1.21875 -0.359375 2.4375q-0.03125 1.21875 0.203125 2.859375q0 0.3125 -0.078125 0.640625q-0.078125 0.3125 -0.625 0.703125z" fill-rule="nonzero"/><path fill="#000000" fill-opacity="0.0" d="m211.97934 94.13026l241.5748 0l0 90.4882l-241.5748 0z" fill-rule="evenodd"/><path fill="#42cff4" d="m241.98003 127.430885q0 -2.015625 0.90625 -5.296875q-2.609375 0.0625 -4.109375 0.15625q-0.375 0.703125 -0.84375 1.625l-0.890625 1.765625q-1.8125 3.5781174 -3.328125 4.7656174q-1.234375 0.984375 -2.65625 0.984375q-1.21875 0 -1.875 -0.84375q-0.28125 -0.390625 -0.328125 -0.875q-0.046875 -0.484375 0.453125 -0.796875q1.53125 -0.578125 2.46875 -1.7187424q0.875 -1.078125 1.75 -2.671875l1.296875 -2.015625l0.03125 0.15625q-1.5625 0.28125 -1.5625 -0.875q0 -0.75 0.765625 -1.296875q1.0 -0.75 1.984375 -1.0l0.375 -0.078125q2.234375 -3.703125 3.484375 -5.28125q1.265625 -1.578125 2.328125 -2.640625q1.0625 -1.0625 2.234375 -1.875q2.625 -1.8125 5.21875 -1.8125q1.0 0 1.453125 0.5q0.640625 0.71875 0.4375 1.4375q-0.203125 0.703125 -0.5625 1.71875q-2.296875 6.25 -3.15625 7.359375q0 -0.453125 0.203125 -0.453125l0.3125 0q2.046875 0 2.296875 0.734375q0.0625 0.21875 0.0625 0.59375q0 0.375 -0.234375 0.859375q-0.234375 0.484375 -0.75 0.8125q-0.890625 0.59375 -2.40625 0.671875q-0.84375 2.90625 -0.96875 4.078125q-0.125 1.171875 -0.03125 1.375q0.109375 0.203125 0.28125 0.203125q0.171875 0 0.359375 -0.046875q0.1875 -0.0625 0.34375 -0.15625l0.375 -0.171875q0.28125 -0.140625 0.6875 -0.140625q0.40625 0 0.625 0.421875q0.21875 0.42186737 0.21875 0.9062424q0 0.46875 -0.34375 1.03125q-0.328125 0.546875 -0.859375 0.96875q-1.15625 0.921875 -2.625 0.921875q-2.359375 0 -3.140625 -2.109375q-0.28125 -0.703125 -0.28125 -1.296875l0 -0.5937424zm-1.09375 -8.75q1.34375 -0.1875 3.125 -0.21875q0.265625 -0.84375 0.734375 -2.0625l0.890625 -2.3125q0.453125 -1.09375 0.921875 -2.078125l0.265625 -0.59375q-1.5 0.390625 -4.28125 4.578125q-0.59375 0.890625 -1.171875 1.859375l-0.484375 0.828125zm23.464249 8.5625q0.9375 0 0.9375 0.9531174q0 1.5625 -1.5 2.578125q-0.984375 0.65625 -2.28125 0.65625q-1.15625 0 -1.8125 -0.578125q-1.078125 -0.96875 -1.078125 -2.34375q0 -1.5468674 1.796875 -4.3437424q-1.734375 3.375 -2.65625 4.3749924q-0.90625 1.0 -1.59375 1.578125q-1.609375 1.3125 -2.984375 1.3125q-2.1875 0 -2.921875 -1.921875q-0.21875 -0.578125 -0.21875 -1.28125q0 -0.7031174 0.21875 -1.5156174q0.234375 -0.8125 0.5625 -1.640625q0.34375 -0.84375 0.71875 -1.71875l0.78125 -1.71875q1.359375 -3.0 1.15625 -3.34375q-0.09375 -0.140625 -0.4375 -0.34375q-0.484375 -0.265625 -0.484375 -0.8125q0 -0.546875 0.328125 -0.90625q0.328125 -0.359375 0.765625 -0.59375q0.828125 -0.390625 1.65625 -0.390625q0.84375 0 1.3125 0.203125q0.46875 0.203125 0.78125 0.5q0.65625 0.671875 0.65625 1.40625q0 0.734375 -0.203125 1.5q-0.1875 0.765625 -0.5 1.609375q-0.3125 0.84375 -0.671875 1.75q-0.984375 2.328125 -1.34375 3.09375l-0.53125 1.078125q-0.375 0.875 -0.375 1.109375q0 0.234375 -0.03125 0.203125q-0.03125 -0.046875 0.0625 -0.046875q0.09375 0 0.4375 -0.234375q0.34375 -0.25 0.84375 -0.75q0.5 -0.5 1.046875 -1.171875q0.5625 -0.6875 1.109375 -1.421875q1.046875 -1.421875 1.53125 -2.28125q3.0625 -5.4375 3.28125 -5.6875q0.625 -0.859375 1.3125 -0.859375q0.6875 0 1.125 0.140625q0.453125 0.140625 0.796875 0.40625q0.984375 0.71875 0.578125 1.625q-3.453125 7.203125 -3.703125 8.984375q-0.078125 0.609375 -0.078125 0.8125q0 0.484375 0.046875 0.484375q0.46875 0 0.859375 -0.21875q0.40625 -0.234375 0.703125 -0.234375zm11.209381 -0.921875q1.015625 0 1.015625 1.171875q0 0.6406174 -0.359375 1.2031174q-0.4375 0.953125 -1.75 1.796875q-1.46875 0.9375 -2.984375 0.9375q-2.75 0 -3.5 -2.5q-0.78125 -2.6406174 1.9375 -9.999992q-1.265625 -0.109375 -1.53125 -0.921875q-0.078125 -0.21875 -0.078125 -0.515625q0 -0.296875 0.203125 -0.609375q0.21875 -0.3125 0.484375 -0.546875q0.703125 -0.578125 1.4375 -0.578125l0.71875 0q1.453125 -3.390625 2.25 -4.0q0.484375 -0.34375 1.015625 -0.34375q0.546875 0 0.90625 0.140625q0.375 0.140625 0.671875 0.40625q0.640625 0.609375 0.640625 1.40625q0 0.421875 -0.234375 0.90625l-1.265625 1.84375l0 -0.390625q0.875 0 1.421875 -0.015625q0 0 0.796875 -0.015625q0.28125 -0.015625 1.0 -0.015625q0.734375 0 0.734375 0.90625q0 2.5 -5.078125 2.5l0 -0.421875l-0.515625 2.546875q-1.609375 4.359375 -1.609375 6.046875q0 0.28125 0.0625 0.375q0.078125 0.078125 0.5 0.078125q0.421875 0 0.84375 -0.171875q0.4375 -0.1875 0.78125 -0.4375q0.359375 -0.25 0.71875 -0.515625q0.359375 -0.265625 0.765625 -0.265625zm3.0879822 3.8281174q-0.6875 -0.671875 -1.078125 -1.65625q-0.390625 -0.9999924 -0.40625 -2.2968674q-0.015625 -1.3125 0.296875 -2.609375q0.328125 -1.296875 0.921875 -2.5q0.609375 -1.203125 1.4375 -2.25q0.84375 -1.0625 1.859375 -1.859375q2.265625 -1.734375 4.71875 -1.734375q3.34375 0 4.546875 2.96875q0.828125 2.0625 0.125 4.921875q-0.640625 2.578125 -2.3125 4.734375q-1.703125 2.1718674 -4.015625 3.0937424q-1.203125 0.46875 -2.359375 0.46875q-1.15625 0 -2.09375 -0.3125q-0.9375 -0.3125 -1.640625 -0.96875zm3.71875 -7.1562424q-0.40625 1.015625 -0.640625 2.078125q-0.234375 1.046875 -0.21875 1.9375q0.015625 0.875 0.1875 1.2187424q0.171875 0.34375 0.546875 0.34375q0.375 0 0.890625 -0.375q0.53125 -0.37499237 1.078125 -1.0624924q0.5625 -0.6875 1.0625 -1.609375q0.515625 -0.9375 0.921875 -1.96875q0.8125 -2.1875 0.796875 -3.875q0 -1.25 -0.390625 -1.5q-0.09375 -0.0625 -0.375 -0.0625q-0.28125 0 -0.765625 0.34375q-0.484375 0.34375 -1.046875 1.015625q-0.5625 0.65625 -1.09375 1.578125q-0.53125 0.90625 -0.953125 1.9375zm21.25122 -3.8125q-0.5625 0 -2.578125 2.203125q-1.640625 1.859375 -2.359375 2.78125l-1.265625 1.59375q-0.796875 1.5 -1.265625 2.5312424l-0.78125 1.6875q-0.328125 0.6875 -0.671875 1.078125q-0.328125 0.375 -0.90625 0.375q-0.578125 0 -1.03125 -0.171875q-0.453125 -0.171875 -0.78125 -0.453125q-0.765625 -0.640625 -0.765625 -1.46875q0 -0.359375 0.375 -1.109375l0.546875 -1.1562424q0.234375 -0.5 0.578125 -1.296875l0.8125 -1.953125q1.640625 -4.109375 1.640625 -5.234375q0 -0.34375 -0.1875 -0.46875l-0.265625 -0.203125q-0.40625 -0.265625 -0.40625 -0.78125q0 -0.53125 0.296875 -0.890625q0.3125 -0.375 0.734375 -0.59375q0.78125 -0.40625 1.546875 -0.40625q0.78125 0 1.265625 0.1875q0.484375 0.1875 0.828125 0.5q0.75 0.6875 0.75 1.40625q0 0.71875 -0.15625 1.328125q-0.15625 0.609375 -0.390625 1.203125q-0.21875 0.578125 -0.453125 1.125q-0.59375 1.25 -1.0 1.40625q-0.40625 0.140625 -0.859375 -0.28125q2.65625 -3.4375 3.1875 -4.0625q1.15625 -1.3125 1.8125 -1.84375q1.296875 -0.96875 2.546875 -0.96875q1.25 0 2.015625 0.8125q0.78125 0.8125 0.78125 2.09375q0 1.015625 -0.484375 2.28125q-0.46875 1.265625 -1.203125 1.546875l1.625 -3.15625l1.1875 -1.421875q1.15625 -1.296875 2.0625 -1.71875q0.921875 -0.4375 1.546875 -0.4375q0.640625 0 1.25 0.234375q0.625 0.21875 1.046875 0.65625q0.90625 0.890625 0.90625 2.296875q0 1.25 -0.546875 2.5q-0.546875 1.234375 -0.9375 1.984375q-0.375 0.75 -0.734375 1.5q-0.984375 2.171875 -0.984375 3.125q0 0.171875 0.015625 0.171875q0.453125 0 0.9375 -0.25q0.5 -0.265625 0.796875 -0.265625q0.90625 0 0.90625 0.9062424q0 1.609375 -1.5625 2.65625q-1.03125 0.671875 -1.90625 0.671875q-0.859375 0 -1.421875 -0.21875q-0.5625 -0.21875 -1.015625 -0.6875q-0.96875 -1.0 -0.96875 -2.40625q0 -1.4218674 0.328125 -2.5156174q0.328125 -1.109375 0.765625 -2.125q0.453125 -1.015625 0.890625 -1.828125q0.4375 -0.828125 0.65625 -1.296875q0.40625 -0.890625 0.40625 -1.234375q0.0625 0 0.015625 0.0625q-0.46875 0 -2.296875 2.328125q-1.5 1.96875 -2.078125 2.828125l-0.984375 1.40625q-0.796875 1.515625 -1.21875 2.5312424l-0.734375 1.6875q-0.296875 0.671875 -0.625 1.078125q-0.3125 0.390625 -0.875 0.390625q-0.546875 0 -0.984375 -0.140625q-0.4375 -0.140625 -0.75 -0.390625q-0.796875 -0.59375 -0.796875 -1.265625q0 -0.6875 0.328125 -1.546875q0.328125 -0.8749924 0.8125 -1.9062424l2.0 -4.234375q1.015625 -2.234375 1.015625 -2.5q0.015625 -0.28125 0.015625 -0.265625zm1.4375 3.40625q-0.015625 0 -0.609375 -0.140625l0.625 0.109375q0 0.046875 -0.015625 0.03125zm23.322601 4.28125q0 0.71875 0.328125 0.71875q0.5 0 0.921875 -0.203125q0.421875 -0.203125 0.703125 -0.203125q0.90625 0 0.90625 0.9218674q0 1.546875 -1.546875 2.625q-1.609375 1.09375 -3.328125 0.53125q-1.203125 -0.421875 -1.734375 -1.78125q-0.265625 -0.640625 -0.265625 -1.234375q0 -0.7812424 0.75 -1.5781174q-0.875 3.1874924 -3.015625 4.3124924q-0.9375 0.453125 -1.96875 0.453125q-1.03125 0 -1.828125 -0.4375q-0.78125 -0.4375 -1.3125 -1.203125q-1.0625 -1.515625 -0.953125 -3.7343674q0.078125 -2.703125 1.578125 -5.28125q1.375 -2.421875 3.46875 -3.921875q2.140625 -1.609375 4.140625 -1.609375q2.0 0 2.71875 1.078125q0.65625 -1.078125 1.765625 -1.078125q1.015625 0 1.59375 0.4375q1.21875 0.859375 0.734375 1.765625q-3.53125 7.234375 -3.625 8.921875q-0.03125 0.25 -0.03125 0.5zm-7.953125 0.0625q0 1.1093674 0.5 1.1093674q0.5625 0 1.609375 -1.2187424q1.734375 -2.03125 3.09375 -5.5q0.4375 -1.078125 0.703125 -2.078125q-0.046875 -0.546875 -0.515625 -0.84375q-0.125 -0.0625 -0.46875 -0.0625q-0.34375 0 -0.921875 0.3125q-0.5625 0.3125 -1.15625 0.90625q-0.578125 0.578125 -1.09375 1.40625q-0.515625 0.828125 -0.921875 1.8125q-0.828125 2.09375 -0.828125 4.15625zm20.521912 -0.609375q1.015625 0 1.015625 1.171875q0 0.6406174 -0.359375 1.2031174q-0.4375 0.953125 -1.75 1.796875q-1.46875 0.9375 -2.984375 0.9375q-2.75 0 -3.5 -2.5q-0.78125 -2.6406174 1.9375 -9.999992q-1.265625 -0.109375 -1.53125 -0.921875q-0.078125 -0.21875 -0.078125 -0.515625q0 -0.296875 0.203125 -0.609375q0.21875 -0.3125 0.484375 -0.546875q0.703125 -0.578125 1.4375 -0.578125l0.71875 0q1.453125 -3.390625 2.25 -4.0q0.484375 -0.34375 1.015625 -0.34375q0.546875 0 0.90625 0.140625q0.375 0.140625 0.671875 0.40625q0.640625 0.609375 0.640625 1.40625q0 0.421875 -0.234375 0.90625l-1.265625 1.84375l0 -0.390625q0.875 0 1.421875 -0.015625q0 0 0.796875 -0.015625q0.28125 -0.015625 1.0 -0.015625q0.734375 0 0.734375 0.90625q0 2.5 -5.078125 2.5l0 -0.421875l-0.515625 2.546875q-1.609375 4.359375 -1.609375 6.046875q0 0.28125 0.0625 0.375q0.078125 0.078125 0.5 0.078125q0.421875 0 0.84375 -0.171875q0.4375 -0.1875 0.78125 -0.4375q0.359375 -0.25 0.71875 -0.515625q0.359375 -0.265625 0.765625 -0.265625zm10.353607 -13.390625q-0.375 0.40625 -0.890625 0.671875q-0.5 0.25 -1.078125 0.3125q-0.578125 0.0625 -1.125 -0.1875q-0.53125 -0.25 -0.890625 -0.703125q-0.765625 -0.875 -0.765625 -1.8125q0 -0.9375 0.328125 -1.421875q0.328125 -0.5 0.796875 -0.8125q0.84375 -0.53125 1.5625 -0.53125q0.734375 0 1.171875 0.109375q0.4375 0.109375 0.796875 0.375q0.96875 0.640625 0.96875 1.546875q0 0.90625 -0.25 1.46875q-0.234375 0.5625 -0.625 0.984375zm-3.375 14.46875q0.984375 0 0.984375 1.0937424q0 0.875 -0.734375 1.71875q-1.046875 1.21875 -2.765625 1.21875q-2.0625 0 -2.828125 -1.6875q-0.296875 -0.59375 -0.296875 -1.375q0 -0.7968674 0.25 -1.6718674q0.265625 -0.875 0.609375 -1.796875q0.359375 -0.9375 0.78125 -1.890625l0.765625 -1.78125q0.78125 -1.90625 0.78125 -2.390625q0 -0.5 -0.0625 -0.578125q-0.046875 -0.09375 -0.125 -0.140625l-0.265625 -0.203125q-0.40625 -0.265625 -0.40625 -0.78125q0 -0.53125 0.296875 -0.890625q0.3125 -0.375 0.734375 -0.59375q0.78125 -0.40625 1.78125 -0.40625q2.71875 0 2.71875 1.71875q0 1.40625 -0.703125 3.125q-0.6875 1.71875 -1.171875 2.734375l-0.859375 1.96875q-0.890625 2.0625 -0.890625 2.890625q0 0.03125 0.015625 0.03125q0.484375 0 0.796875 -0.15625q0.3125 -0.15625 0.59375 -0.15625zm2.9386292 -1.671875q0.015625 -1.328125 0.40625 -2.625q0.390625 -1.3125 1.03125 -2.484375q0.640625 -1.171875 1.515625 -2.15625q0.890625 -0.984375 1.953125 -1.6875q2.21875 -1.53125 4.671875 -1.53125q2.75 0 3.765625 2.234375q0.34375 0.8125 0.3125 1.78125q-0.015625 0.96875 -0.3125 1.765625q-0.28125 0.78125 -0.71875 1.40625q-1.03125 1.53125 -2.25 1.53125q-1.28125 0 -1.9375 -0.765625q-0.609375 -0.703125 -0.375 -1.625q0.0625 -0.421875 0.359375 -0.625q0.3125 -0.203125 0.59375 -0.484375q0.765625 -0.796875 0.796875 -1.875q0.015625 -0.25 -0.46875 -0.25q-0.953125 0 -2.09375 1.15625q-1.796875 1.84375 -2.546875 4.75q-0.609375 2.375 0.15625 3.375q0.359375 0.48436737 1.03125 0.48436737q1.40625 0 2.75 -1.0312424q0.390625 -0.3125 0.75 -0.765625q0.359375 -0.453125 0.90625 -0.453125q0.546875 0 0.859375 0.453125q0.3125 0.4375 0.3125 1.0q0 1.0781174 -0.9375 2.0781174q-2.125 2.046875 -5.109375 2.046875q-2.609375 0 -4.046875 -1.515625q-1.4375 -1.5 -1.375 -4.1874924zm35.967346 -3.8125q-0.421875 -0.015625 -0.875 -0.046875q-0.453125 -0.046875 -1.0625 -0.0625q-1.3125 -0.03125 -2.4375 0.078125q-0.25 0.875 -1.09375 2.71875q-0.84375 1.828125 -1.65625 3.109375q-1.828125 2.8437424 -3.8125 3.5468674q-0.34375 0.125 -0.71875 0.125q-0.375 0 -0.71875 -0.125q-0.34375 -0.140625 -0.5625 -0.375q-0.46875 -0.4375 -0.46875 -1.046875q0 -0.625 0.46875 -0.96875q1.875 -1.3593674 4.40625 -6.8124924q0.125 0.515625 -0.015625 0.546875q-0.140625 0.03125 -0.296875 0.09375q-0.140625 0.0625 -0.4375 0.0625q-0.28125 0 -0.5625 -0.140625q-0.265625 -0.15625 -0.46875 -0.328125q-0.515625 -0.484375 -0.515625 -1.015625q0 -0.546875 0.375 -0.890625q0.375 -0.34375 0.8125 -0.609375q0.734375 -0.421875 1.546875 -0.6875l0.671875 -2.109375q1.390625 -4.328125 2.015625 -5.15625q-0.03125 0 -0.5625 0q-1.515625 0 -2.109375 0.375q-0.59375 0.375 -0.828125 0.8125q-0.21875 0.421875 -0.21875 0.515625q-0.09375 0.734375 -0.515625 0.953125q-0.40625 0.21875 -0.890625 0.21875q-0.484375 0 -0.953125 -0.3125q-0.453125 -0.3125 -0.734375 -0.765625q-0.5625 -0.890625 -0.453125 -1.953125q0.125 -1.0625 0.6875 -1.8125q0.5625 -0.75 1.328125 -1.21875q1.359375 -0.828125 2.8125 -0.828125q1.46875 0 2.6875 0.140625q1.234375 0.125 2.4375 0.296875q3.171875 0.4375 3.984375 0.4375q0.8125 0 1.140625 -0.078125q0.34375 -0.078125 0.609375 -0.265625q0.265625 -0.1875 0.46875 -0.28125q0.21875 -0.109375 0.625 -0.109375q1.109375 0 1.0 1.046875q-0.09375 1.046875 -0.421875 1.625q-0.3125 0.578125 -0.828125 0.953125q-1.0 0.75 -2.421875 0.75q-1.421875 0 -2.890625 -0.140625q-0.25 0.53125 -0.671875 2.03125l-1.0625 3.8125q0.453125 -0.0625 1.234375 -0.0625q0.78125 0 1.3125 0.171875q0.546875 0.171875 0.984375 0.46875q1.09375 0.734375 1.078125 2.03125q0 1.28125 -1.421875 1.28125zm3.4582214 8.234367q-0.6875 -0.671875 -1.078125 -1.65625q-0.390625 -0.9999924 -0.40625 -2.2968674q-0.015625 -1.3125 0.296875 -2.609375q0.328125 -1.296875 0.921875 -2.5q0.609375 -1.203125 1.4375 -2.25q0.84375 -1.0625 1.859375 -1.859375q2.265625 -1.734375 4.71875 -1.734375q3.34375 0 4.546875 2.96875q0.828125 2.0625 0.125 4.921875q-0.640625 2.578125 -2.3125 4.734375q-1.703125 2.1718674 -4.015625 3.0937424q-1.203125 0.46875 -2.359375 0.46875q-1.15625 0 -2.09375 -0.3125q-0.9375 -0.3125 -1.640625 -0.96875zm3.71875 -7.1562424q-0.40625 1.015625 -0.640625 2.078125q-0.234375 1.046875 -0.21875 1.9375q0.015625 0.875 0.1875 1.2187424q0.171875 0.34375 0.546875 0.34375q0.375 0 0.890625 -0.375q0.53125 -0.37499237 1.078125 -1.0624924q0.5625 -0.6875 1.0625 -1.609375q0.515625 -0.9375 0.921875 -1.96875q0.8125 -2.1875 0.796875 -3.875q0 -1.25 -0.390625 -1.5q-0.09375 -0.0625 -0.375 -0.0625q-0.28125 0 -0.765625 0.34375q-0.484375 0.34375 -1.046875 1.015625q-0.5625 0.65625 -1.09375 1.578125q-0.53125 0.90625 -0.953125 1.9375zm11.360626 7.1562424q-0.6875 -0.671875 -1.078125 -1.65625q-0.390625 -0.9999924 -0.40625 -2.2968674q-0.015625 -1.3125 0.296875 -2.609375q0.328125 -1.296875 0.921875 -2.5q0.609375 -1.203125 1.4375 -2.25q0.84375 -1.0625 1.859375 -1.859375q2.265625 -1.734375 4.71875 -1.734375q3.34375 0 4.546875 2.96875q0.828125 2.0625 0.125 4.921875q-0.640625 2.578125 -2.3125 4.734375q-1.703125 2.1718674 -4.015625 3.0937424q-1.203125 0.46875 -2.359375 0.46875q-1.15625 0 -2.09375 -0.3125q-0.9375 -0.3125 -1.640625 -0.96875zm3.71875 -7.1562424q-0.40625 1.015625 -0.640625 2.078125q-0.234375 1.046875 -0.21875 1.9375q0.015625 0.875 0.1875 1.2187424q0.171875 0.34375 0.546875 0.34375q0.375 0 0.890625 -0.375q0.53125 -0.37499237 1.078125 -1.0624924q0.5625 -0.6875 1.0625 -1.609375q0.515625 -0.9375 0.921875 -1.96875q0.8125 -2.1875 0.796875 -3.875q0 -1.25 -0.390625 -1.5q-0.09375 -0.0625 -0.375 -0.0625q-0.28125 0 -0.765625 0.34375q-0.484375 0.34375 -1.046875 1.015625q-0.5625 0.65625 -1.09375 1.578125q-0.53125 0.90625 -0.953125 1.9375zm24.766846 4.1875q0.90625 0 0.90625 0.9218674q0 1.546875 -1.546875 2.625q-1.0 0.703125 -1.90625 0.703125q-0.890625 0 -1.453125 -0.21875q-0.5625 -0.21875 -1.015625 -0.6875q-0.96875 -1.046875 -0.96875 -2.7812424q0 -0.34375 0.46875 -0.3125q-0.4375 1.5468674 -1.328125 2.3281174q-1.84375 1.671875 -3.6875 1.671875q-2.96875 0 -3.90625 -2.703125q-0.3125 -0.9531174 -0.3125 -2.3124924q0 -1.375 0.40625 -2.734375q0.40625 -1.375 1.109375 -2.609375q0.703125 -1.25 1.609375 -2.296875q0.921875 -1.0625 1.96875 -1.84375q2.25 -1.6875 4.1875 -1.6875q1.953125 0 2.421875 0.625q2.171875 -7.46875 3.515625 -9.09375q0.71875 -0.84375 1.59375 -0.84375q1.25 0 1.921875 0.765625q0.3125 0.34375 0.3125 0.71875q0 0.359375 -0.25 0.921875q-0.25 0.546875 -0.703125 1.65625q-1.25 3.34375 -1.765625 4.890625q-1.328125 4.0 -1.78125 5.484375l-0.78125 2.65625q-0.984375 3.4375 -0.984375 4.0625q0 0.609375 0.09375 0.609375q0.515625 0 0.765625 -0.109375l0.53125 -0.265625q0.28125 -0.140625 0.578125 -0.140625zm-9.84375 0.8906174q1.140625 0 2.875 -2.6249924q1.9375 -2.875 2.671875 -6.1875q-0.046875 -0.5625 -0.515625 -0.859375q-0.125 -0.0625 -0.484375 -0.0625q-0.359375 0 -0.953125 0.328125q-0.578125 0.3125 -1.1875 0.90625q-0.59375 0.59375 -1.125 1.421875q-0.53125 0.8125 -0.921875 1.71875q-0.859375 2.0 -0.859375 3.6875q0 1.6718674 0.5 1.6718674z" fill-rule="nonzero"/><path fill="#42cff4" d="m272.20157 162.42776q0.140625 -0.96875 0.5625 -2.640625q0.4375 -1.6875 1.109375 -3.5625q1.53125 -4.328125 3.625 -7.734375q0.4375 -0.6875 1.15625 -0.796875q0.671875 -0.09375 1.203125 -0.09375q0.546875 0 1.03125 0.140625q0.484375 0.140625 0.8125 0.390625q0.859375 0.734375 0.25 1.5625q-2.546875 3.84375 -4.453125 9.40625q-0.71875 2.09375 -0.859375 2.90625q-0.140625 0.8125 -0.203125 1.109375q-0.046875 0.28125 -0.046875 0.453125q-0.140625 0 0.171875 -0.0625q0.3125 -0.078125 0.96875 -0.328125q0.671875 -0.25 1.484375 -0.734375q0.828125 -0.484375 1.71875 -1.1875q0.890625 -0.71875 1.75 -1.59375q0.859375 -0.875 1.625 -1.890625q0.765625 -1.03125 1.3125 -2.15625q1.25 -2.453125 1.25 -4.8125q0 -3.03125 -2.421875 -4.0q-0.859375 -0.34375 -1.828125 -0.34375q-0.96875 0 -1.65625 0.125q-0.671875 0.125 -1.296875 0.359375q-1.25 0.4375 -2.125 1.21875q-0.453125 0.25 -0.953125 0.25q-0.484375 0 -0.984375 -0.25q-0.5 -0.25 -0.875 -0.625q-0.96875 -0.921875 -0.75 -1.890625q0.21875 -1.28125 3.1875 -2.0625q2.25 -0.578125 4.546875 -0.578125q2.296875 0 4.171875 0.640625q1.875 0.640625 3.078125 1.734375q2.25 2.109375 2.25 5.59375q0 4.46875 -3.0625 8.59375q-2.796875 3.796875 -6.65625 5.765625q-2.5625 1.296875 -4.734375 1.296875q-1.8125 0 -3.125 -1.0625q-1.5 -1.21875 -1.234375 -3.140625zm26.89386 -14.296875q-0.375 0.40625 -0.890625 0.671875q-0.5 0.25 -1.078125 0.3125q-0.578125 0.0625 -1.125 -0.1875q-0.53125 -0.25 -0.890625 -0.703125q-0.765625 -0.875 -0.765625 -1.8125q0 -0.9375 0.328125 -1.421875q0.328125 -0.5 0.796875 -0.8125q0.84375 -0.53125 1.5625 -0.53125q0.734375 0 1.171875 0.109375q0.4375 0.109375 0.796875 0.375q0.96875 0.640625 0.96875 1.546875q0 0.90625 -0.25 1.46875q-0.234375 0.5625 -0.625 0.984375zm-3.375 14.46875q0.984375 0 0.984375 1.09375q0 0.875 -0.734375 1.71875q-1.046875 1.21875 -2.765625 1.21875q-2.0625 0 -2.828125 -1.6875q-0.296875 -0.59375 -0.296875 -1.375q0 -0.796875 0.25 -1.671875q0.265625 -0.875 0.609375 -1.796875q0.359375 -0.9375 0.78125 -1.890625l0.765625 -1.78125q0.78125 -1.90625 0.78125 -2.390625q0 -0.5 -0.0625 -0.578125q-0.046875 -0.09375 -0.125 -0.140625l-0.265625 -0.203125q-0.40625 -0.265625 -0.40625 -0.78125q0 -0.53125 0.296875 -0.890625q0.3125 -0.375 0.734375 -0.59375q0.78125 -0.40625 1.78125 -0.40625q2.71875 0 2.71875 1.71875q0 1.40625 -0.703125 3.125q-0.6875 1.71875 -1.171875 2.734375l-0.859375 1.96875q-0.890625 2.0625 -0.890625 2.890625q0 0.03125 0.015625 0.03125q0.484375 0 0.796875 -0.15625q0.3125 -0.15625 0.59375 -0.15625zm2.2979736 0.765625q0 -0.609375 0.25 -1.09375q0.25 -0.484375 0.609375 -0.828125q0.796875 -0.71875 1.6875 -0.71875q1.171875 0 1.171875 1.203125q0 1.140625 0.703125 1.5625q0.21875 0.125 0.46875 0.125q0.25 0 0.421875 -0.046875q0.171875 -0.0625 0.3125 -0.171875q0.296875 -0.234375 0.296875 -0.578125q0 -0.359375 -0.21875 -0.75q-0.203125 -0.40625 -0.578125 -0.890625l-0.8125 -1.15625q-1.828125 -2.4375 -1.828125 -4.578125q0 -1.875 1.546875 -3.34375q1.71875 -1.65625 4.375 -1.65625q2.359375 0 3.71875 1.203125q1.1875 1.015625 1.1875 2.390625q0 1.421875 -1.09375 2.296875q-1.0 0.765625 -2.046875 0.546875q-0.59375 -0.125 -0.9375 -0.609375q-0.328125 -0.5 -0.1875 -0.953125q0.140625 -0.46875 0.140625 -0.75q0 -0.28125 -0.09375 -0.484375q-0.09375 -0.21875 -0.25 -0.375q-0.3125 -0.296875 -0.6875 -0.296875q-0.375 0 -0.640625 0.09375q-0.265625 0.09375 -0.421875 0.21875q-0.359375 0.328125 -0.359375 0.890625q0 0.546875 0.21875 1.0q0.21875 0.453125 0.5625 0.984375q0.359375 0.515625 0.8125 1.078125q0.453125 0.5625 0.84375 1.21875q1.0 1.578125 1.0 2.859375q0 1.265625 -0.546875 2.125q-0.53125 0.859375 -1.359375 1.453125q-1.703125 1.28125 -3.84375 1.28125q-2.0625 0 -3.3125 -1.03125q-1.109375 -0.921875 -1.109375 -2.21875zm16.322021 1.390625q0.515625 0.109375 -0.09375 2.1875q-0.59375 2.078125 -1.0 3.28125q-0.9375 2.8125 -1.609375 3.5625q-0.65625 0.71875 -1.59375 0.71875q-1.171875 0 -1.78125 -1.109375q-0.203125 -0.375 -0.203125 -0.796875q0 -0.40625 0.484375 -1.46875q1.109375 -2.328125 2.984375 -9.21875q0.75 -2.75 1.0 -3.734375l0.453125 -1.796875q0.453125 -1.71875 0.515625 -2.234375q0.0625 -0.53125 -0.015625 -0.640625q-0.0625 -0.109375 -0.203125 -0.203125q-0.140625 -0.09375 -0.484375 -0.28125q-0.328125 -0.203125 -0.265625 -0.765625q0.078125 -0.5625 0.375 -0.890625q0.3125 -0.34375 0.734375 -0.546875q0.78125 -0.375 1.5625 -0.375q0.78125 0 1.28125 0.21875q0.5 0.21875 0.8125 0.578125q0.6875 0.75 0.625 1.5625q-0.171875 1.140625 -0.609375 1.0625q1.875 -3.421875 4.875 -3.421875q2.890625 0 3.859375 2.96875q0.3125 0.96875 0.3125 2.34375q0 1.375 -0.40625 2.734375q-0.40625 1.359375 -1.109375 2.5625q-0.6875 1.1875 -1.609375 2.203125q-0.90625 1.015625 -1.9375 1.78125q-2.21875 1.59375 -4.328125 1.59375q-2.09375 0 -2.625 -1.875zm2.703125 -6.0625q-0.5 0.96875 -0.796875 1.90625q-0.296875 0.921875 -0.296875 1.609375q0 0.6875 0.21875 1.015625q0.21875 0.328125 0.671875 0.328125q0.46875 0 1.046875 -0.328125q0.578125 -0.328125 1.1875 -0.90625q0.609375 -0.59375 1.140625 -1.40625q0.53125 -0.828125 0.921875 -1.734375q0.859375 -2.015625 0.859375 -3.796875q0 -0.890625 -0.171875 -1.21875q-0.15625 -0.34375 -0.4375 -0.34375q-0.265625 0 -0.78125 0.375q-0.5 0.359375 -1.15625 1.046875q-0.640625 0.671875 -1.28125 1.578125q-0.625 0.890625 -1.125 1.875zm10.372131 2.15625q0.046875 -1.34375 0.421875 -2.546875q0.390625 -1.203125 1.015625 -2.3125q0.640625 -1.125 1.484375 -2.125q0.859375 -1.0 1.84375 -1.765625q2.21875 -1.65625 4.515625 -1.65625q2.859375 0 3.828125 2.40625q0.328125 0.796875 0.3125 1.859375q0 1.0625 -0.390625 1.96875q-0.390625 0.890625 -1.0625 1.609375q-0.671875 0.71875 -1.578125 1.28125q-0.90625 0.546875 -1.953125 0.9375q-2.125 0.75 -4.328125 0.453125q0.328125 0.015625 0.3125 0.34375q-0.015625 0.328125 0.0625 0.734375q0.09375 0.40625 0.265625 0.703125q0.34375 0.5625 0.984375 0.5625q1.484375 0 2.921875 -0.890625q0.5 -0.296875 0.90625 -0.703125q0.421875 -0.421875 0.96875 -0.421875q0.5625 0 0.875 0.53125q0.328125 0.53125 0.328125 1.078125q0 0.96875 -0.578125 1.734375q-2.015625 2.0 -5.828125 2.0q-2.359375 0 -3.796875 -1.421875q-1.640625 -1.625 -1.53125 -4.359375zm8.96875 -7.28125q-1.171875 0 -2.390625 1.796875q-1.109375 1.703125 -1.546875 3.171875q1.28125 -0.125 2.890625 -1.625q1.421875 -1.375 1.421875 -2.359375q0 -0.984375 -0.375 -0.984375zm15.661621 0.8125q-0.1875 0 -0.90625 0.75q-0.71875 0.75 -1.3125 1.4375l-1.21875 1.453125l-2.296875 2.9375q-0.796875 1.5 -1.265625 2.53125l-0.78125 1.6875q-0.328125 0.6875 -0.671875 1.078125q-0.328125 0.375 -0.90625 0.375q-0.578125 0 -1.03125 -0.171875q-0.453125 -0.171875 -0.78125 -0.453125q-0.765625 -0.640625 -0.765625 -1.46875q0 -0.359375 0.375 -1.109375l0.546875 -1.15625q0.234375 -0.5 0.578125 -1.296875l0.8125 -1.953125q1.640625 -4.109375 1.640625 -5.234375q0 -0.34375 -0.1875 -0.46875l-0.265625 -0.203125q-0.40625 -0.265625 -0.40625 -0.78125q0 -0.53125 0.296875 -0.890625q0.3125 -0.375 0.734375 -0.59375q0.78125 -0.40625 1.5625 -0.40625q0.78125 0 1.234375 0.203125q0.46875 0.1875 0.8125 0.5q0.71875 0.671875 0.71875 1.390625q0 0.71875 -0.15625 1.328125q-0.15625 0.59375 -0.375 1.1875q-0.203125 0.578125 -0.4375 1.140625q-0.234375 0.5625 -0.4375 0.953125l-0.28125 0.640625q-0.65625 -0.046875 -1.125 -0.46875q1.625 -2.21875 2.140625 -2.875l1.0 -1.21875q1.171875 -1.34375 1.859375 -1.8125q1.4375 -0.96875 2.3125 -0.96875q0.875 0 1.484375 0.234375q0.625 0.21875 1.078125 0.65625q0.984375 0.90625 0.984375 2.234375q0 1.328125 -0.546875 2.625q-0.546875 1.28125 -0.9375 2.046875q-0.375 0.765625 -0.703125 1.5625q-1.03125 2.265625 -1.03125 3.234375q-0.125 0 0.171875 -0.125q0.453125 0 0.953125 -0.25q0.5 -0.265625 0.78125 -0.265625q0.90625 0 0.90625 0.90625q0 1.609375 -1.5625 2.65625q-1.03125 0.671875 -1.90625 0.671875q-0.875 0 -1.46875 -0.1875q-0.578125 -0.203125 -1.046875 -0.625q-1.046875 -0.953125 -1.046875 -2.578125q0 -1.78125 1.09375 -4.375q0.765625 -1.734375 1.09375 -2.375l0.484375 -1.015625q0.375 -0.796875 0.375 -0.9375q0 -0.15625 -0.171875 -0.15625zm4.8291016 8.984375q0 -0.609375 0.25 -1.09375q0.25 -0.484375 0.609375 -0.828125q0.796875 -0.71875 1.6875 -0.71875q1.171875 0 1.171875 1.203125q0 1.140625 0.703125 1.5625q0.21875 0.125 0.46875 0.125q0.25 0 0.421875 -0.046875q0.171875 -0.0625 0.3125 -0.171875q0.296875 -0.234375 0.296875 -0.578125q0 -0.359375 -0.21875 -0.75q-0.203125 -0.40625 -0.578125 -0.890625l-0.8125 -1.15625q-1.828125 -2.4375 -1.828125 -4.578125q0 -1.875 1.546875 -3.34375q1.71875 -1.65625 4.375 -1.65625q2.359375 0 3.71875 1.203125q1.1875 1.015625 1.1875 2.390625q0 1.421875 -1.09375 2.296875q-1.0 0.765625 -2.046875 0.546875q-0.59375 -0.125 -0.9375 -0.609375q-0.328125 -0.5 -0.1875 -0.953125q0.140625 -0.46875 0.140625 -0.75q0 -0.28125 -0.09375 -0.484375q-0.09375 -0.21875 -0.25 -0.375q-0.3125 -0.296875 -0.6875 -0.296875q-0.375 0 -0.640625 0.09375q-0.265625 0.09375 -0.421875 0.21875q-0.359375 0.328125 -0.359375 0.890625q0 0.546875 0.21875 1.0q0.21875 0.453125 0.5625 0.984375q0.359375 0.515625 0.8125 1.078125q0.453125 0.5625 0.84375 1.21875q1.0 1.578125 1.0 2.859375q0 1.265625 -0.546875 2.125q-0.53125 0.859375 -1.359375 1.453125q-1.703125 1.28125 -3.84375 1.28125q-2.0625 0 -3.3125 -1.03125q-1.109375 -0.921875 -1.109375 -2.21875zm13.2438965 -2.515625q0.046875 -1.34375 0.421875 -2.546875q0.390625 -1.203125 1.015625 -2.3125q0.640625 -1.125 1.484375 -2.125q0.859375 -1.0 1.84375 -1.765625q2.21875 -1.65625 4.515625 -1.65625q2.859375 0 3.828125 2.40625q0.328125 0.796875 0.3125 1.859375q0 1.0625 -0.390625 1.96875q-0.390625 0.890625 -1.0625 1.609375q-0.671875 0.71875 -1.578125 1.28125q-0.90625 0.546875 -1.953125 0.9375q-2.125 0.75 -4.328125 0.453125q0.328125 0.015625 0.3125 0.34375q-0.015625 0.328125 0.0625 0.734375q0.09375 0.40625 0.265625 0.703125q0.34375 0.5625 0.984375 0.5625q1.484375 0 2.921875 -0.890625q0.5 -0.296875 0.90625 -0.703125q0.421875 -0.421875 0.96875 -0.421875q0.5625 0 0.875 0.53125q0.328125 0.53125 0.328125 1.078125q0 0.96875 -0.578125 1.734375q-2.015625 2.0 -5.828125 2.0q-2.359375 0 -3.796875 -1.421875q-1.640625 -1.625 -1.53125 -4.359375zm8.96875 -7.28125q-1.171875 0 -2.390625 1.796875q-1.109375 1.703125 -1.546875 3.171875q1.28125 -0.125 2.890625 -1.625q1.421875 -1.375 1.421875 -2.359375q0 -0.984375 -0.375 -0.984375zm5.005371 12.453125q-0.359375 -0.28125 -0.609375 -0.65625q-0.25 -0.390625 -0.265625 -0.703125q0 -0.328125 0.09375 -0.671875q0.109375 -0.34375 0.296875 -0.78125q2.875 -7.078125 2.875 -9.40625q-0.03125 -0.359375 -0.21875 -0.484375l-0.296875 -0.21875q-0.359375 -0.265625 -0.375 -0.765625q-0.015625 -0.515625 0.265625 -0.875q0.296875 -0.375 0.703125 -0.609375q0.75 -0.40625 1.546875 -0.40625q0.796875 0 1.25 0.1875q0.46875 0.1875 0.8125 0.5q0.75 0.703125 0.75 1.453125q0.015625 0.734375 -0.140625 1.375q-0.140625 0.640625 -0.34375 1.21875q-0.1875 0.578125 -0.375 1.078125q-0.171875 0.484375 -0.21875 0.703125q-0.078125 0.390625 -0.640625 0.359375q-0.234375 -0.515625 -0.1875 -0.6875l0.59375 -1.125q1.9375 -3.5 3.859375 -4.65625q0.65625 -0.40625 1.59375 -0.40625q0.953125 0 1.546875 0.703125q0.609375 0.6875 0.640625 1.453125q0.03125 0.765625 -0.109375 1.28125q-0.125 0.5 -0.390625 0.90625q-0.625 1.109375 -1.65625 1.109375q-0.40625 0 -0.734375 -0.265625l-0.328125 -0.296875q-0.296875 -0.25 -0.5 -0.25q-0.203125 0 -0.71875 0.46875q-0.515625 0.46875 -1.15625 1.328125q-2.21875 2.921875 -3.625 6.5625l-0.625 1.65625q-0.265625 0.6875 -0.5625 1.109375q-0.28125 0.421875 -0.875 0.421875q-0.578125 0 -1.046875 -0.15625q-0.453125 -0.171875 -0.828125 -0.453125z" fill-rule="nonzero"/></g></svg>